%TF.GenerationSoftware,KiCad,Pcbnew,5.1.10-88a1d61d58~88~ubuntu20.04.1*%
%TF.CreationDate,2021-06-07T00:33:57-07:00*%
%TF.ProjectId,Stenokey,5374656e-6f6b-4657-992e-6b696361645f,1.0*%
%TF.SameCoordinates,Original*%
%TF.FileFunction,Copper,L2,Bot*%
%TF.FilePolarity,Positive*%
%FSLAX46Y46*%
G04 Gerber Fmt 4.6, Leading zero omitted, Abs format (unit mm)*
G04 Created by KiCad (PCBNEW 5.1.10-88a1d61d58~88~ubuntu20.04.1) date 2021-06-07 00:33:57*
%MOMM*%
%LPD*%
G01*
G04 APERTURE LIST*
%TA.AperFunction,NonConductor*%
%ADD10C,0.300000*%
%TD*%
%TA.AperFunction,ComponentPad*%
%ADD11C,8.000000*%
%TD*%
%TA.AperFunction,ComponentPad*%
%ADD12R,3.000000X3.000000*%
%TD*%
%TA.AperFunction,ComponentPad*%
%ADD13C,3.000000*%
%TD*%
%TA.AperFunction,ComponentPad*%
%ADD14O,1.700000X1.700000*%
%TD*%
%TA.AperFunction,ComponentPad*%
%ADD15R,1.700000X1.700000*%
%TD*%
%TA.AperFunction,Conductor*%
%ADD16C,0.500000*%
%TD*%
G04 APERTURE END LIST*
D10*
X127964285Y-201250000D02*
X128107142Y-201178571D01*
X128321428Y-201178571D01*
X128535714Y-201250000D01*
X128678571Y-201392857D01*
X128750000Y-201535714D01*
X128821428Y-201821428D01*
X128821428Y-202035714D01*
X128750000Y-202321428D01*
X128678571Y-202464285D01*
X128535714Y-202607142D01*
X128321428Y-202678571D01*
X128178571Y-202678571D01*
X127964285Y-202607142D01*
X127892857Y-202535714D01*
X127892857Y-202035714D01*
X128178571Y-202035714D01*
X126750000Y-201892857D02*
X126535714Y-201964285D01*
X126464285Y-202035714D01*
X126392857Y-202178571D01*
X126392857Y-202392857D01*
X126464285Y-202535714D01*
X126535714Y-202607142D01*
X126678571Y-202678571D01*
X127250000Y-202678571D01*
X127250000Y-201178571D01*
X126750000Y-201178571D01*
X126607142Y-201250000D01*
X126535714Y-201321428D01*
X126464285Y-201464285D01*
X126464285Y-201607142D01*
X126535714Y-201750000D01*
X126607142Y-201821428D01*
X126750000Y-201892857D01*
X127250000Y-201892857D01*
X125035714Y-202678571D02*
X125750000Y-202678571D01*
X125750000Y-201178571D01*
D11*
%TO.P,Z9,1*%
%TO.N,Net-(Z9-Pad1)*%
X279000000Y-193000000D03*
%TD*%
D12*
%TO.P,SW25,1*%
%TO.N,/ROW2*%
X207500000Y-144000000D03*
D13*
%TO.P,SW25,2*%
%TO.N,/COL4*%
X212500000Y-143500000D03*
%TD*%
D11*
%TO.P,Z12,1*%
%TO.N,Net-(Z12-Pad1)*%
X160000000Y-193000000D03*
%TD*%
D12*
%TO.P,SW15,1*%
%TO.N,/ROW1*%
X207500000Y-120750000D03*
D13*
%TO.P,SW15,2*%
%TO.N,/COL4*%
X212500000Y-120250000D03*
%TD*%
D12*
%TO.P,SW1,1*%
%TO.N,/ROW0*%
X131500000Y-100500000D03*
D13*
%TO.P,SW1,2*%
%TO.N,/COL0*%
X136500000Y-100000000D03*
%TD*%
D14*
%TO.P,U1,1*%
%TO.N,/COL0*%
X111760000Y-85090000D03*
%TO.P,U1,2*%
%TO.N,/COL1*%
X114300000Y-85090000D03*
D15*
%TO.P,U1,3*%
%TO.N,Net-(U1-Pad3)*%
X116840000Y-85090000D03*
D14*
%TO.P,U1,4*%
%TO.N,/COL2*%
X119380000Y-85090000D03*
%TO.P,U1,5*%
%TO.N,/COL3*%
X121920000Y-85090000D03*
%TO.P,U1,6*%
%TO.N,/COL4*%
X124460000Y-85090000D03*
%TO.P,U1,7*%
%TO.N,/COL5*%
X127000000Y-85090000D03*
D15*
%TO.P,U1,8*%
%TO.N,Net-(U1-Pad8)*%
X129540000Y-85090000D03*
D14*
%TO.P,U1,9*%
%TO.N,/COL6*%
X132080000Y-85090000D03*
%TO.P,U1,10*%
%TO.N,/COL7*%
X134620000Y-85090000D03*
%TO.P,U1,11*%
%TO.N,/COL8*%
X137160000Y-85090000D03*
%TO.P,U1,12*%
%TO.N,/COL9*%
X139700000Y-85090000D03*
D15*
%TO.P,U1,13*%
%TO.N,Net-(U1-Pad13)*%
X142240000Y-85090000D03*
D14*
%TO.P,U1,14*%
%TO.N,/ROW0*%
X144780000Y-85090000D03*
%TO.P,U1,15*%
%TO.N,/ROW1*%
X147320000Y-85090000D03*
%TO.P,U1,16*%
%TO.N,/ROW2*%
X149860000Y-85090000D03*
%TO.P,U1,17*%
%TO.N,/ROW3*%
X152400000Y-85090000D03*
D15*
%TO.P,U1,18*%
%TO.N,Net-(U1-Pad18)*%
X154940000Y-85090000D03*
D14*
%TO.P,U1,19*%
%TO.N,Net-(U1-Pad19)*%
X157480000Y-85090000D03*
%TO.P,U1,20*%
%TO.N,Net-(U1-Pad20)*%
X160020000Y-85090000D03*
%TO.P,U1,21*%
%TO.N,Net-(U1-Pad21)*%
X160020000Y-67310000D03*
%TO.P,U1,22*%
%TO.N,Net-(U1-Pad22)*%
X157480000Y-67310000D03*
D15*
%TO.P,U1,23*%
%TO.N,Net-(U1-Pad23)*%
X154940000Y-67310000D03*
D14*
%TO.P,U1,24*%
%TO.N,Net-(U1-Pad24)*%
X152400000Y-67310000D03*
%TO.P,U1,25*%
%TO.N,Net-(U1-Pad25)*%
X149860000Y-67310000D03*
%TO.P,U1,26*%
%TO.N,Net-(U1-Pad26)*%
X147320000Y-67310000D03*
%TO.P,U1,27*%
%TO.N,Net-(U1-Pad27)*%
X144780000Y-67310000D03*
D15*
%TO.P,U1,28*%
%TO.N,Net-(U1-Pad28)*%
X142240000Y-67310000D03*
D14*
%TO.P,U1,29*%
%TO.N,Net-(U1-Pad29)*%
X139700000Y-67310000D03*
%TO.P,U1,30*%
%TO.N,Net-(U1-Pad30)*%
X137160000Y-67310000D03*
%TO.P,U1,31*%
%TO.N,Net-(U1-Pad31)*%
X134620000Y-67310000D03*
%TO.P,U1,32*%
%TO.N,Net-(U1-Pad32)*%
X132080000Y-67310000D03*
D15*
%TO.P,U1,33*%
%TO.N,Net-(U1-Pad33)*%
X129540000Y-67310000D03*
D14*
%TO.P,U1,34*%
%TO.N,Net-(U1-Pad34)*%
X127000000Y-67310000D03*
%TO.P,U1,35*%
%TO.N,Net-(U1-Pad35)*%
X124460000Y-67310000D03*
%TO.P,U1,36*%
%TO.N,Net-(U1-Pad36)*%
X121920000Y-67310000D03*
%TO.P,U1,37*%
%TO.N,Net-(U1-Pad37)*%
X119380000Y-67310000D03*
D15*
%TO.P,U1,38*%
%TO.N,Net-(U1-Pad38)*%
X116840000Y-67310000D03*
D14*
%TO.P,U1,39*%
%TO.N,Net-(U1-Pad39)*%
X114300000Y-67310000D03*
%TO.P,U1,40*%
%TO.N,Net-(U1-Pad40)*%
X111760000Y-67310000D03*
%TO.P,U1,41*%
%TO.N,Net-(U1-Pad41)*%
X159790000Y-78740000D03*
D15*
%TO.P,U1,42*%
%TO.N,Net-(U1-Pad42)*%
X159790000Y-76200000D03*
D14*
%TO.P,U1,43*%
%TO.N,Net-(U1-Pad43)*%
X159790000Y-73660000D03*
%TD*%
D11*
%TO.P,Z14,1*%
%TO.N,Net-(Z14-Pad1)*%
X117000000Y-160000000D03*
%TD*%
%TO.P,Z11,1*%
%TO.N,Net-(Z11-Pad1)*%
X170000000Y-193000000D03*
%TD*%
%TO.P,Z10,1*%
%TO.N,Net-(Z10-Pad1)*%
X269000000Y-193000000D03*
%TD*%
D12*
%TO.P,SW26,1*%
%TO.N,/ROW2*%
X226500000Y-144000000D03*
D13*
%TO.P,SW26,2*%
%TO.N,/COL5*%
X231500000Y-143500000D03*
%TD*%
D12*
%TO.P,SW16,1*%
%TO.N,/ROW1*%
X226500000Y-120750000D03*
D13*
%TO.P,SW16,2*%
%TO.N,/COL5*%
X231500000Y-120250000D03*
%TD*%
D11*
%TO.P,Z2,1*%
%TO.N,Net-(Z2-Pad1)*%
X170000000Y-67500000D03*
%TD*%
D12*
%TO.P,SW12,1*%
%TO.N,/ROW1*%
X150500000Y-120750000D03*
D13*
%TO.P,SW12,2*%
%TO.N,/COL1*%
X155500000Y-120250000D03*
%TD*%
D12*
%TO.P,SW28,1*%
%TO.N,/ROW2*%
X264500000Y-144000000D03*
D13*
%TO.P,SW28,2*%
%TO.N,/COL7*%
X269500000Y-143500000D03*
%TD*%
D12*
%TO.P,SW27,1*%
%TO.N,/ROW2*%
X245500000Y-144000000D03*
D13*
%TO.P,SW27,2*%
%TO.N,/COL6*%
X250500000Y-143500000D03*
%TD*%
D12*
%TO.P,SW6,1*%
%TO.N,/ROW0*%
X226500000Y-100500000D03*
D13*
%TO.P,SW6,2*%
%TO.N,/COL5*%
X231500000Y-100000000D03*
%TD*%
D12*
%TO.P,SW9,1*%
%TO.N,/ROW0*%
X283500000Y-100500000D03*
D13*
%TO.P,SW9,2*%
%TO.N,/COL8*%
X288500000Y-100000000D03*
%TD*%
D12*
%TO.P,SW5,1*%
%TO.N,/ROW0*%
X207500000Y-100500000D03*
D13*
%TO.P,SW5,2*%
%TO.N,/COL4*%
X212500000Y-100000000D03*
%TD*%
D12*
%TO.P,SW23,1*%
%TO.N,/ROW2*%
X169500000Y-144000000D03*
D13*
%TO.P,SW23,2*%
%TO.N,/COL2*%
X174500000Y-143500000D03*
%TD*%
D12*
%TO.P,SW19,1*%
%TO.N,/ROW1*%
X283500000Y-120750000D03*
D13*
%TO.P,SW19,2*%
%TO.N,/COL8*%
X288500000Y-120250000D03*
%TD*%
D12*
%TO.P,SW31,1*%
%TO.N,/ROW3*%
X179000000Y-169000000D03*
D13*
%TO.P,SW31,2*%
%TO.N,/COL0*%
X184000000Y-168500000D03*
%TD*%
D11*
%TO.P,Z3,1*%
%TO.N,Net-(Z3-Pad1)*%
X269000000Y-67500000D03*
%TD*%
D12*
%TO.P,SW30,1*%
%TO.N,/ROW2*%
X302500000Y-144000000D03*
D13*
%TO.P,SW30,2*%
%TO.N,/COL9*%
X307500000Y-143500000D03*
%TD*%
D12*
%TO.P,SW18,1*%
%TO.N,/ROW1*%
X264500000Y-120750000D03*
D13*
%TO.P,SW18,2*%
%TO.N,/COL7*%
X269500000Y-120250000D03*
%TD*%
D12*
%TO.P,SW14,1*%
%TO.N,/ROW1*%
X188500000Y-120750000D03*
D13*
%TO.P,SW14,2*%
%TO.N,/COL3*%
X193500000Y-120250000D03*
%TD*%
D11*
%TO.P,Z13,1*%
%TO.N,Net-(Z13-Pad1)*%
X117000000Y-170000000D03*
%TD*%
D12*
%TO.P,SW34,1*%
%TO.N,/ROW3*%
X236000000Y-169000000D03*
D13*
%TO.P,SW34,2*%
%TO.N,/COL6*%
X241000000Y-168500000D03*
%TD*%
D11*
%TO.P,Z7,1*%
%TO.N,Net-(Z7-Pad1)*%
X322000000Y-160000000D03*
%TD*%
%TO.P,Z5,1*%
%TO.N,Net-(Z5-Pad1)*%
X322000000Y-90500000D03*
%TD*%
%TO.P,Z6,1*%
%TO.N,Net-(Z6-Pad1)*%
X322000000Y-100500000D03*
%TD*%
D12*
%TO.P,SW11,1*%
%TO.N,/ROW1*%
X131500000Y-120750000D03*
D13*
%TO.P,SW11,2*%
%TO.N,/COL0*%
X136500000Y-120250000D03*
%TD*%
D12*
%TO.P,SW20,1*%
%TO.N,/ROW1*%
X302500000Y-120750000D03*
D13*
%TO.P,SW20,2*%
%TO.N,/COL9*%
X307500000Y-120250000D03*
%TD*%
D12*
%TO.P,SW8,1*%
%TO.N,/ROW0*%
X264500000Y-100500000D03*
D13*
%TO.P,SW8,2*%
%TO.N,/COL7*%
X269500000Y-100000000D03*
%TD*%
D12*
%TO.P,SW10,1*%
%TO.N,/ROW0*%
X302500000Y-100500000D03*
D13*
%TO.P,SW10,2*%
%TO.N,/COL9*%
X307500000Y-100000000D03*
%TD*%
D11*
%TO.P,Z4,1*%
%TO.N,Net-(Z4-Pad1)*%
X279000000Y-67500000D03*
%TD*%
D12*
%TO.P,SW33,1*%
%TO.N,/ROW3*%
X217000000Y-169000000D03*
D13*
%TO.P,SW33,2*%
%TO.N,/COL5*%
X222000000Y-168500000D03*
%TD*%
D12*
%TO.P,SW13,1*%
%TO.N,/ROW1*%
X169500000Y-120750000D03*
D13*
%TO.P,SW13,2*%
%TO.N,/COL2*%
X174500000Y-120250000D03*
%TD*%
D12*
%TO.P,SW7,1*%
%TO.N,/ROW0*%
X245500000Y-100500000D03*
D13*
%TO.P,SW7,2*%
%TO.N,/COL6*%
X250500000Y-100000000D03*
%TD*%
D12*
%TO.P,SW29,1*%
%TO.N,/ROW2*%
X283500000Y-144000000D03*
D13*
%TO.P,SW29,2*%
%TO.N,/COL8*%
X288500000Y-143500000D03*
%TD*%
D12*
%TO.P,SW21,1*%
%TO.N,/ROW2*%
X131500000Y-144000000D03*
D13*
%TO.P,SW21,2*%
%TO.N,/COL0*%
X136500000Y-143500000D03*
%TD*%
D12*
%TO.P,SW32,1*%
%TO.N,/ROW3*%
X198000000Y-169000000D03*
D13*
%TO.P,SW32,2*%
%TO.N,/COL1*%
X203000000Y-168500000D03*
%TD*%
D12*
%TO.P,SW17,1*%
%TO.N,/ROW1*%
X245500000Y-120750000D03*
D13*
%TO.P,SW17,2*%
%TO.N,/COL6*%
X250500000Y-120250000D03*
%TD*%
D12*
%TO.P,SW2,1*%
%TO.N,/ROW0*%
X150500000Y-100500000D03*
D13*
%TO.P,SW2,2*%
%TO.N,/COL1*%
X155500000Y-100000000D03*
%TD*%
D12*
%TO.P,SW3,1*%
%TO.N,/ROW0*%
X169500000Y-100500000D03*
D13*
%TO.P,SW3,2*%
%TO.N,/COL2*%
X174500000Y-100000000D03*
%TD*%
D11*
%TO.P,Z8,1*%
%TO.N,Net-(Z8-Pad1)*%
X322000000Y-170000000D03*
%TD*%
D12*
%TO.P,SW24,1*%
%TO.N,/ROW2*%
X188500000Y-144000000D03*
D13*
%TO.P,SW24,2*%
%TO.N,/COL3*%
X193500000Y-143500000D03*
%TD*%
D12*
%TO.P,SW4,1*%
%TO.N,/ROW0*%
X188500000Y-100500000D03*
D13*
%TO.P,SW4,2*%
%TO.N,/COL3*%
X193500000Y-100000000D03*
%TD*%
D11*
%TO.P,Z15,1*%
%TO.N,Net-(Z15-Pad1)*%
X117000000Y-100500000D03*
%TD*%
D12*
%TO.P,SW22,1*%
%TO.N,/ROW2*%
X150500000Y-144000000D03*
D13*
%TO.P,SW22,2*%
%TO.N,/COL1*%
X155500000Y-143500000D03*
%TD*%
D16*
%TO.N,/COL0*%
X133999600Y-102500400D02*
X136500000Y-100000000D01*
X111760000Y-85090000D02*
X129170400Y-102500400D01*
X129170400Y-102500400D02*
X133999600Y-102500400D01*
X136500000Y-120250000D02*
X136500000Y-105000800D01*
X136500000Y-105000800D02*
X133999600Y-102500400D01*
X136500000Y-143500000D02*
X136500000Y-120250000D01*
X136500000Y-143500000D02*
X164000400Y-171000400D01*
X164000400Y-171000400D02*
X181499600Y-171000400D01*
X181499600Y-171000400D02*
X184000000Y-168500000D01*
%TO.N,/COL1*%
X155500000Y-120250000D02*
X155500000Y-143500000D01*
X155500000Y-100000000D02*
X155500000Y-120250000D01*
%TO.N,/COL2*%
X174500000Y-120250000D02*
X174500000Y-143500000D01*
X174500000Y-100000000D02*
X174500000Y-120250000D01*
%TO.N,/COL3*%
X193500000Y-143500000D02*
X193500000Y-120250000D01*
X193500000Y-100000000D02*
X193500000Y-120250000D01*
%TO.N,/COL4*%
X212500000Y-120250000D02*
X212500000Y-143500000D01*
X212500000Y-100000000D02*
X212500000Y-120250000D01*
%TO.N,/COL5*%
X231500000Y-120250000D02*
X231500000Y-143500000D01*
X231500000Y-100000000D02*
X231500000Y-120250000D01*
X222000000Y-168500000D02*
X231500000Y-159000000D01*
X231500000Y-159000000D02*
X231500000Y-143500000D01*
%TO.N,/COL6*%
X250500000Y-120250000D02*
X250500000Y-143500000D01*
X250500000Y-100000000D02*
X250500000Y-120250000D01*
X241000000Y-168500000D02*
X241000000Y-153000000D01*
X241000000Y-153000000D02*
X250500000Y-143500000D01*
%TO.N,/COL7*%
X269500000Y-120250000D02*
X269500000Y-143500000D01*
X269500000Y-100000000D02*
X269500000Y-120250000D01*
%TO.N,/COL8*%
X288500000Y-120250000D02*
X288500000Y-100000000D01*
X288500000Y-143500000D02*
X288500000Y-120250000D01*
%TO.N,/COL9*%
X307500000Y-120250000D02*
X307500000Y-143500000D01*
X307500000Y-100000000D02*
X307500000Y-120250000D01*
%TO.N,/ROW0*%
X144780000Y-85090000D02*
X144780000Y-86440300D01*
X131500000Y-100500000D02*
X131500000Y-98499700D01*
X144780000Y-86440300D02*
X143559400Y-86440300D01*
X143559400Y-86440300D02*
X131500000Y-98499700D01*
%TO.N,/ROW1*%
X150500000Y-120750000D02*
X150500000Y-118749700D01*
X147320000Y-85090000D02*
X147320000Y-115569700D01*
X147320000Y-115569700D02*
X150500000Y-118749700D01*
%TO.N,/ROW2*%
X302500000Y-144000000D02*
X300499700Y-144000000D01*
X283500000Y-144000000D02*
X285500300Y-144000000D01*
X285500300Y-144000000D02*
X287048700Y-145548400D01*
X287048700Y-145548400D02*
X298951300Y-145548400D01*
X298951300Y-145548400D02*
X300499700Y-144000000D01*
X150500000Y-144000000D02*
X150500000Y-141999700D01*
X149860000Y-85090000D02*
X149860000Y-86440300D01*
X149860000Y-86440300D02*
X152500300Y-89080600D01*
X152500300Y-89080600D02*
X152500300Y-139999400D01*
X152500300Y-139999400D02*
X150500000Y-141999700D01*
%TO.N,/ROW3*%
X179000000Y-169000000D02*
X179000000Y-166999700D01*
X152400000Y-85090000D02*
X152400000Y-86440300D01*
X152400000Y-86440300D02*
X164766000Y-98806300D01*
X164766000Y-98806300D02*
X164766000Y-152765700D01*
X164766000Y-152765700D02*
X179000000Y-166999700D01*
%TD*%
M02*
