%TF.GenerationSoftware,KiCad,Pcbnew,5.1.10-88a1d61d58~88~ubuntu20.04.1*%
%TF.CreationDate,2021-06-07T00:33:57-07:00*%
%TF.ProjectId,Stenokey,5374656e-6f6b-4657-992e-6b696361645f,1.0*%
%TF.SameCoordinates,Original*%
%TF.FileFunction,Soldermask,Top*%
%TF.FilePolarity,Negative*%
%FSLAX46Y46*%
G04 Gerber Fmt 4.6, Leading zero omitted, Abs format (unit mm)*
G04 Created by KiCad (PCBNEW 5.1.10-88a1d61d58~88~ubuntu20.04.1) date 2021-06-07 00:33:57*
%MOMM*%
%LPD*%
G01*
G04 APERTURE LIST*
%ADD10C,0.300000*%
%ADD11C,8.400000*%
%ADD12C,3.400000*%
%ADD13O,2.100000X2.100000*%
%ADD14O,2.200000X2.200000*%
%ADD15O,1.900000X1.900000*%
G04 APERTURE END LIST*
D10*
X116107142Y-201250000D02*
X115964285Y-201178571D01*
X115750000Y-201178571D01*
X115535714Y-201250000D01*
X115392857Y-201392857D01*
X115321428Y-201535714D01*
X115250000Y-201821428D01*
X115250000Y-202035714D01*
X115321428Y-202321428D01*
X115392857Y-202464285D01*
X115535714Y-202607142D01*
X115750000Y-202678571D01*
X115892857Y-202678571D01*
X116107142Y-202607142D01*
X116178571Y-202535714D01*
X116178571Y-202035714D01*
X115892857Y-202035714D01*
X116607142Y-201178571D02*
X117464285Y-201178571D01*
X117035714Y-202678571D02*
X117035714Y-201178571D01*
X117892857Y-202607142D02*
X118107142Y-202678571D01*
X118464285Y-202678571D01*
X118607142Y-202607142D01*
X118678571Y-202535714D01*
X118750000Y-202392857D01*
X118750000Y-202250000D01*
X118678571Y-202107142D01*
X118607142Y-202035714D01*
X118464285Y-201964285D01*
X118178571Y-201892857D01*
X118035714Y-201821428D01*
X117964285Y-201750000D01*
X117892857Y-201607142D01*
X117892857Y-201464285D01*
X117964285Y-201321428D01*
X118035714Y-201250000D01*
X118178571Y-201178571D01*
X118535714Y-201178571D01*
X118750000Y-201250000D01*
D11*
%TO.C,Z9*%
X279000000Y-193000000D03*
%TD*%
%TO.C,SW25*%
G36*
G01*
X205800000Y-145500000D02*
X205800000Y-142500000D01*
G75*
G02*
X206000000Y-142300000I200000J0D01*
G01*
X209000000Y-142300000D01*
G75*
G02*
X209200000Y-142500000I0J-200000D01*
G01*
X209200000Y-145500000D01*
G75*
G02*
X209000000Y-145700000I-200000J0D01*
G01*
X206000000Y-145700000D01*
G75*
G02*
X205800000Y-145500000I0J200000D01*
G01*
G37*
D12*
X212500000Y-143500000D03*
%TD*%
D11*
%TO.C,Z12*%
X160000000Y-193000000D03*
%TD*%
%TO.C,SW15*%
G36*
G01*
X205800000Y-122250000D02*
X205800000Y-119250000D01*
G75*
G02*
X206000000Y-119050000I200000J0D01*
G01*
X209000000Y-119050000D01*
G75*
G02*
X209200000Y-119250000I0J-200000D01*
G01*
X209200000Y-122250000D01*
G75*
G02*
X209000000Y-122450000I-200000J0D01*
G01*
X206000000Y-122450000D01*
G75*
G02*
X205800000Y-122250000I0J200000D01*
G01*
G37*
D12*
X212500000Y-120250000D03*
%TD*%
%TO.C,SW1*%
G36*
G01*
X129800000Y-102000000D02*
X129800000Y-99000000D01*
G75*
G02*
X130000000Y-98800000I200000J0D01*
G01*
X133000000Y-98800000D01*
G75*
G02*
X133200000Y-99000000I0J-200000D01*
G01*
X133200000Y-102000000D01*
G75*
G02*
X133000000Y-102200000I-200000J0D01*
G01*
X130000000Y-102200000D01*
G75*
G02*
X129800000Y-102000000I0J200000D01*
G01*
G37*
X136500000Y-100000000D03*
%TD*%
D13*
%TO.C,U1*%
X111760000Y-85090000D03*
X114300000Y-85090000D03*
G36*
G01*
X117690000Y-86140000D02*
X115990000Y-86140000D01*
G75*
G02*
X115790000Y-85940000I0J200000D01*
G01*
X115790000Y-84240000D01*
G75*
G02*
X115990000Y-84040000I200000J0D01*
G01*
X117690000Y-84040000D01*
G75*
G02*
X117890000Y-84240000I0J-200000D01*
G01*
X117890000Y-85940000D01*
G75*
G02*
X117690000Y-86140000I-200000J0D01*
G01*
G37*
X119380000Y-85090000D03*
X121920000Y-85090000D03*
X124460000Y-85090000D03*
X127000000Y-85090000D03*
G36*
G01*
X130390000Y-86140000D02*
X128690000Y-86140000D01*
G75*
G02*
X128490000Y-85940000I0J200000D01*
G01*
X128490000Y-84240000D01*
G75*
G02*
X128690000Y-84040000I200000J0D01*
G01*
X130390000Y-84040000D01*
G75*
G02*
X130590000Y-84240000I0J-200000D01*
G01*
X130590000Y-85940000D01*
G75*
G02*
X130390000Y-86140000I-200000J0D01*
G01*
G37*
X132080000Y-85090000D03*
X134620000Y-85090000D03*
X137160000Y-85090000D03*
X139700000Y-85090000D03*
G36*
G01*
X143090000Y-86140000D02*
X141390000Y-86140000D01*
G75*
G02*
X141190000Y-85940000I0J200000D01*
G01*
X141190000Y-84240000D01*
G75*
G02*
X141390000Y-84040000I200000J0D01*
G01*
X143090000Y-84040000D01*
G75*
G02*
X143290000Y-84240000I0J-200000D01*
G01*
X143290000Y-85940000D01*
G75*
G02*
X143090000Y-86140000I-200000J0D01*
G01*
G37*
X144780000Y-85090000D03*
X147320000Y-85090000D03*
X149860000Y-85090000D03*
X152400000Y-85090000D03*
G36*
G01*
X155790000Y-86140000D02*
X154090000Y-86140000D01*
G75*
G02*
X153890000Y-85940000I0J200000D01*
G01*
X153890000Y-84240000D01*
G75*
G02*
X154090000Y-84040000I200000J0D01*
G01*
X155790000Y-84040000D01*
G75*
G02*
X155990000Y-84240000I0J-200000D01*
G01*
X155990000Y-85940000D01*
G75*
G02*
X155790000Y-86140000I-200000J0D01*
G01*
G37*
X157480000Y-85090000D03*
X160020000Y-85090000D03*
X160020000Y-67310000D03*
X157480000Y-67310000D03*
G36*
G01*
X155790000Y-68360000D02*
X154090000Y-68360000D01*
G75*
G02*
X153890000Y-68160000I0J200000D01*
G01*
X153890000Y-66460000D01*
G75*
G02*
X154090000Y-66260000I200000J0D01*
G01*
X155790000Y-66260000D01*
G75*
G02*
X155990000Y-66460000I0J-200000D01*
G01*
X155990000Y-68160000D01*
G75*
G02*
X155790000Y-68360000I-200000J0D01*
G01*
G37*
X152400000Y-67310000D03*
X149860000Y-67310000D03*
X147320000Y-67310000D03*
X144780000Y-67310000D03*
G36*
G01*
X143090000Y-68360000D02*
X141390000Y-68360000D01*
G75*
G02*
X141190000Y-68160000I0J200000D01*
G01*
X141190000Y-66460000D01*
G75*
G02*
X141390000Y-66260000I200000J0D01*
G01*
X143090000Y-66260000D01*
G75*
G02*
X143290000Y-66460000I0J-200000D01*
G01*
X143290000Y-68160000D01*
G75*
G02*
X143090000Y-68360000I-200000J0D01*
G01*
G37*
X139700000Y-67310000D03*
X137160000Y-67310000D03*
X134620000Y-67310000D03*
X132080000Y-67310000D03*
G36*
G01*
X130390000Y-68360000D02*
X128690000Y-68360000D01*
G75*
G02*
X128490000Y-68160000I0J200000D01*
G01*
X128490000Y-66460000D01*
G75*
G02*
X128690000Y-66260000I200000J0D01*
G01*
X130390000Y-66260000D01*
G75*
G02*
X130590000Y-66460000I0J-200000D01*
G01*
X130590000Y-68160000D01*
G75*
G02*
X130390000Y-68360000I-200000J0D01*
G01*
G37*
X127000000Y-67310000D03*
X124460000Y-67310000D03*
X121920000Y-67310000D03*
X119380000Y-67310000D03*
G36*
G01*
X117690000Y-68360000D02*
X115990000Y-68360000D01*
G75*
G02*
X115790000Y-68160000I0J200000D01*
G01*
X115790000Y-66460000D01*
G75*
G02*
X115990000Y-66260000I200000J0D01*
G01*
X117690000Y-66260000D01*
G75*
G02*
X117890000Y-66460000I0J-200000D01*
G01*
X117890000Y-68160000D01*
G75*
G02*
X117690000Y-68360000I-200000J0D01*
G01*
G37*
X114300000Y-67310000D03*
X111760000Y-67310000D03*
G36*
G01*
X112610000Y-87940000D02*
X110910000Y-87940000D01*
G75*
G02*
X110710000Y-87740000I0J200000D01*
G01*
X110710000Y-84240000D01*
G75*
G02*
X110910000Y-84040000I200000J0D01*
G01*
X112610000Y-84040000D01*
G75*
G02*
X112810000Y-84240000I0J-200000D01*
G01*
X112810000Y-87740000D01*
G75*
G02*
X112610000Y-87940000I-200000J0D01*
G01*
G37*
G36*
G01*
X115150000Y-87940000D02*
X113450000Y-87940000D01*
G75*
G02*
X113250000Y-87740000I0J200000D01*
G01*
X113250000Y-84240000D01*
G75*
G02*
X113450000Y-84040000I200000J0D01*
G01*
X115150000Y-84040000D01*
G75*
G02*
X115350000Y-84240000I0J-200000D01*
G01*
X115350000Y-87740000D01*
G75*
G02*
X115150000Y-87940000I-200000J0D01*
G01*
G37*
G36*
G01*
X117690000Y-87940000D02*
X115990000Y-87940000D01*
G75*
G02*
X115790000Y-87740000I0J200000D01*
G01*
X115790000Y-84240000D01*
G75*
G02*
X115990000Y-84040000I200000J0D01*
G01*
X117690000Y-84040000D01*
G75*
G02*
X117890000Y-84240000I0J-200000D01*
G01*
X117890000Y-87740000D01*
G75*
G02*
X117690000Y-87940000I-200000J0D01*
G01*
G37*
G36*
G01*
X120230000Y-87940000D02*
X118530000Y-87940000D01*
G75*
G02*
X118330000Y-87740000I0J200000D01*
G01*
X118330000Y-84240000D01*
G75*
G02*
X118530000Y-84040000I200000J0D01*
G01*
X120230000Y-84040000D01*
G75*
G02*
X120430000Y-84240000I0J-200000D01*
G01*
X120430000Y-87740000D01*
G75*
G02*
X120230000Y-87940000I-200000J0D01*
G01*
G37*
G36*
G01*
X122770000Y-87940000D02*
X121070000Y-87940000D01*
G75*
G02*
X120870000Y-87740000I0J200000D01*
G01*
X120870000Y-84240000D01*
G75*
G02*
X121070000Y-84040000I200000J0D01*
G01*
X122770000Y-84040000D01*
G75*
G02*
X122970000Y-84240000I0J-200000D01*
G01*
X122970000Y-87740000D01*
G75*
G02*
X122770000Y-87940000I-200000J0D01*
G01*
G37*
G36*
G01*
X125310000Y-87940000D02*
X123610000Y-87940000D01*
G75*
G02*
X123410000Y-87740000I0J200000D01*
G01*
X123410000Y-84240000D01*
G75*
G02*
X123610000Y-84040000I200000J0D01*
G01*
X125310000Y-84040000D01*
G75*
G02*
X125510000Y-84240000I0J-200000D01*
G01*
X125510000Y-87740000D01*
G75*
G02*
X125310000Y-87940000I-200000J0D01*
G01*
G37*
G36*
G01*
X127850000Y-87940000D02*
X126150000Y-87940000D01*
G75*
G02*
X125950000Y-87740000I0J200000D01*
G01*
X125950000Y-84240000D01*
G75*
G02*
X126150000Y-84040000I200000J0D01*
G01*
X127850000Y-84040000D01*
G75*
G02*
X128050000Y-84240000I0J-200000D01*
G01*
X128050000Y-87740000D01*
G75*
G02*
X127850000Y-87940000I-200000J0D01*
G01*
G37*
G36*
G01*
X130390000Y-87940000D02*
X128690000Y-87940000D01*
G75*
G02*
X128490000Y-87740000I0J200000D01*
G01*
X128490000Y-84240000D01*
G75*
G02*
X128690000Y-84040000I200000J0D01*
G01*
X130390000Y-84040000D01*
G75*
G02*
X130590000Y-84240000I0J-200000D01*
G01*
X130590000Y-87740000D01*
G75*
G02*
X130390000Y-87940000I-200000J0D01*
G01*
G37*
G36*
G01*
X132930000Y-87940000D02*
X131230000Y-87940000D01*
G75*
G02*
X131030000Y-87740000I0J200000D01*
G01*
X131030000Y-84240000D01*
G75*
G02*
X131230000Y-84040000I200000J0D01*
G01*
X132930000Y-84040000D01*
G75*
G02*
X133130000Y-84240000I0J-200000D01*
G01*
X133130000Y-87740000D01*
G75*
G02*
X132930000Y-87940000I-200000J0D01*
G01*
G37*
G36*
G01*
X135470000Y-87940000D02*
X133770000Y-87940000D01*
G75*
G02*
X133570000Y-87740000I0J200000D01*
G01*
X133570000Y-84240000D01*
G75*
G02*
X133770000Y-84040000I200000J0D01*
G01*
X135470000Y-84040000D01*
G75*
G02*
X135670000Y-84240000I0J-200000D01*
G01*
X135670000Y-87740000D01*
G75*
G02*
X135470000Y-87940000I-200000J0D01*
G01*
G37*
G36*
G01*
X138010000Y-87940000D02*
X136310000Y-87940000D01*
G75*
G02*
X136110000Y-87740000I0J200000D01*
G01*
X136110000Y-84240000D01*
G75*
G02*
X136310000Y-84040000I200000J0D01*
G01*
X138010000Y-84040000D01*
G75*
G02*
X138210000Y-84240000I0J-200000D01*
G01*
X138210000Y-87740000D01*
G75*
G02*
X138010000Y-87940000I-200000J0D01*
G01*
G37*
G36*
G01*
X140550000Y-87940000D02*
X138850000Y-87940000D01*
G75*
G02*
X138650000Y-87740000I0J200000D01*
G01*
X138650000Y-84240000D01*
G75*
G02*
X138850000Y-84040000I200000J0D01*
G01*
X140550000Y-84040000D01*
G75*
G02*
X140750000Y-84240000I0J-200000D01*
G01*
X140750000Y-87740000D01*
G75*
G02*
X140550000Y-87940000I-200000J0D01*
G01*
G37*
G36*
G01*
X143090000Y-87940000D02*
X141390000Y-87940000D01*
G75*
G02*
X141190000Y-87740000I0J200000D01*
G01*
X141190000Y-84240000D01*
G75*
G02*
X141390000Y-84040000I200000J0D01*
G01*
X143090000Y-84040000D01*
G75*
G02*
X143290000Y-84240000I0J-200000D01*
G01*
X143290000Y-87740000D01*
G75*
G02*
X143090000Y-87940000I-200000J0D01*
G01*
G37*
G36*
G01*
X145630000Y-87940000D02*
X143930000Y-87940000D01*
G75*
G02*
X143730000Y-87740000I0J200000D01*
G01*
X143730000Y-84240000D01*
G75*
G02*
X143930000Y-84040000I200000J0D01*
G01*
X145630000Y-84040000D01*
G75*
G02*
X145830000Y-84240000I0J-200000D01*
G01*
X145830000Y-87740000D01*
G75*
G02*
X145630000Y-87940000I-200000J0D01*
G01*
G37*
G36*
G01*
X148170000Y-87940000D02*
X146470000Y-87940000D01*
G75*
G02*
X146270000Y-87740000I0J200000D01*
G01*
X146270000Y-84240000D01*
G75*
G02*
X146470000Y-84040000I200000J0D01*
G01*
X148170000Y-84040000D01*
G75*
G02*
X148370000Y-84240000I0J-200000D01*
G01*
X148370000Y-87740000D01*
G75*
G02*
X148170000Y-87940000I-200000J0D01*
G01*
G37*
G36*
G01*
X150710000Y-87940000D02*
X149010000Y-87940000D01*
G75*
G02*
X148810000Y-87740000I0J200000D01*
G01*
X148810000Y-84240000D01*
G75*
G02*
X149010000Y-84040000I200000J0D01*
G01*
X150710000Y-84040000D01*
G75*
G02*
X150910000Y-84240000I0J-200000D01*
G01*
X150910000Y-87740000D01*
G75*
G02*
X150710000Y-87940000I-200000J0D01*
G01*
G37*
G36*
G01*
X153250000Y-87940000D02*
X151550000Y-87940000D01*
G75*
G02*
X151350000Y-87740000I0J200000D01*
G01*
X151350000Y-84240000D01*
G75*
G02*
X151550000Y-84040000I200000J0D01*
G01*
X153250000Y-84040000D01*
G75*
G02*
X153450000Y-84240000I0J-200000D01*
G01*
X153450000Y-87740000D01*
G75*
G02*
X153250000Y-87940000I-200000J0D01*
G01*
G37*
G36*
G01*
X155790000Y-87940000D02*
X154090000Y-87940000D01*
G75*
G02*
X153890000Y-87740000I0J200000D01*
G01*
X153890000Y-84240000D01*
G75*
G02*
X154090000Y-84040000I200000J0D01*
G01*
X155790000Y-84040000D01*
G75*
G02*
X155990000Y-84240000I0J-200000D01*
G01*
X155990000Y-87740000D01*
G75*
G02*
X155790000Y-87940000I-200000J0D01*
G01*
G37*
G36*
G01*
X158330000Y-87940000D02*
X156630000Y-87940000D01*
G75*
G02*
X156430000Y-87740000I0J200000D01*
G01*
X156430000Y-84240000D01*
G75*
G02*
X156630000Y-84040000I200000J0D01*
G01*
X158330000Y-84040000D01*
G75*
G02*
X158530000Y-84240000I0J-200000D01*
G01*
X158530000Y-87740000D01*
G75*
G02*
X158330000Y-87940000I-200000J0D01*
G01*
G37*
G36*
G01*
X160870000Y-87940000D02*
X159170000Y-87940000D01*
G75*
G02*
X158970000Y-87740000I0J200000D01*
G01*
X158970000Y-84240000D01*
G75*
G02*
X159170000Y-84040000I200000J0D01*
G01*
X160870000Y-84040000D01*
G75*
G02*
X161070000Y-84240000I0J-200000D01*
G01*
X161070000Y-87740000D01*
G75*
G02*
X160870000Y-87940000I-200000J0D01*
G01*
G37*
G36*
G01*
X112610000Y-68360000D02*
X110910000Y-68360000D01*
G75*
G02*
X110710000Y-68160000I0J200000D01*
G01*
X110710000Y-64660000D01*
G75*
G02*
X110910000Y-64460000I200000J0D01*
G01*
X112610000Y-64460000D01*
G75*
G02*
X112810000Y-64660000I0J-200000D01*
G01*
X112810000Y-68160000D01*
G75*
G02*
X112610000Y-68360000I-200000J0D01*
G01*
G37*
G36*
G01*
X115150000Y-68360000D02*
X113450000Y-68360000D01*
G75*
G02*
X113250000Y-68160000I0J200000D01*
G01*
X113250000Y-64660000D01*
G75*
G02*
X113450000Y-64460000I200000J0D01*
G01*
X115150000Y-64460000D01*
G75*
G02*
X115350000Y-64660000I0J-200000D01*
G01*
X115350000Y-68160000D01*
G75*
G02*
X115150000Y-68360000I-200000J0D01*
G01*
G37*
G36*
G01*
X117690000Y-68360000D02*
X115990000Y-68360000D01*
G75*
G02*
X115790000Y-68160000I0J200000D01*
G01*
X115790000Y-64660000D01*
G75*
G02*
X115990000Y-64460000I200000J0D01*
G01*
X117690000Y-64460000D01*
G75*
G02*
X117890000Y-64660000I0J-200000D01*
G01*
X117890000Y-68160000D01*
G75*
G02*
X117690000Y-68360000I-200000J0D01*
G01*
G37*
G36*
G01*
X120230000Y-68360000D02*
X118530000Y-68360000D01*
G75*
G02*
X118330000Y-68160000I0J200000D01*
G01*
X118330000Y-64660000D01*
G75*
G02*
X118530000Y-64460000I200000J0D01*
G01*
X120230000Y-64460000D01*
G75*
G02*
X120430000Y-64660000I0J-200000D01*
G01*
X120430000Y-68160000D01*
G75*
G02*
X120230000Y-68360000I-200000J0D01*
G01*
G37*
G36*
G01*
X122770000Y-68360000D02*
X121070000Y-68360000D01*
G75*
G02*
X120870000Y-68160000I0J200000D01*
G01*
X120870000Y-64660000D01*
G75*
G02*
X121070000Y-64460000I200000J0D01*
G01*
X122770000Y-64460000D01*
G75*
G02*
X122970000Y-64660000I0J-200000D01*
G01*
X122970000Y-68160000D01*
G75*
G02*
X122770000Y-68360000I-200000J0D01*
G01*
G37*
G36*
G01*
X125310000Y-68360000D02*
X123610000Y-68360000D01*
G75*
G02*
X123410000Y-68160000I0J200000D01*
G01*
X123410000Y-64660000D01*
G75*
G02*
X123610000Y-64460000I200000J0D01*
G01*
X125310000Y-64460000D01*
G75*
G02*
X125510000Y-64660000I0J-200000D01*
G01*
X125510000Y-68160000D01*
G75*
G02*
X125310000Y-68360000I-200000J0D01*
G01*
G37*
G36*
G01*
X127850000Y-68360000D02*
X126150000Y-68360000D01*
G75*
G02*
X125950000Y-68160000I0J200000D01*
G01*
X125950000Y-64660000D01*
G75*
G02*
X126150000Y-64460000I200000J0D01*
G01*
X127850000Y-64460000D01*
G75*
G02*
X128050000Y-64660000I0J-200000D01*
G01*
X128050000Y-68160000D01*
G75*
G02*
X127850000Y-68360000I-200000J0D01*
G01*
G37*
G36*
G01*
X130390000Y-68360000D02*
X128690000Y-68360000D01*
G75*
G02*
X128490000Y-68160000I0J200000D01*
G01*
X128490000Y-64660000D01*
G75*
G02*
X128690000Y-64460000I200000J0D01*
G01*
X130390000Y-64460000D01*
G75*
G02*
X130590000Y-64660000I0J-200000D01*
G01*
X130590000Y-68160000D01*
G75*
G02*
X130390000Y-68360000I-200000J0D01*
G01*
G37*
G36*
G01*
X132930000Y-68360000D02*
X131230000Y-68360000D01*
G75*
G02*
X131030000Y-68160000I0J200000D01*
G01*
X131030000Y-64660000D01*
G75*
G02*
X131230000Y-64460000I200000J0D01*
G01*
X132930000Y-64460000D01*
G75*
G02*
X133130000Y-64660000I0J-200000D01*
G01*
X133130000Y-68160000D01*
G75*
G02*
X132930000Y-68360000I-200000J0D01*
G01*
G37*
G36*
G01*
X135470000Y-68360000D02*
X133770000Y-68360000D01*
G75*
G02*
X133570000Y-68160000I0J200000D01*
G01*
X133570000Y-64660000D01*
G75*
G02*
X133770000Y-64460000I200000J0D01*
G01*
X135470000Y-64460000D01*
G75*
G02*
X135670000Y-64660000I0J-200000D01*
G01*
X135670000Y-68160000D01*
G75*
G02*
X135470000Y-68360000I-200000J0D01*
G01*
G37*
G36*
G01*
X138010000Y-68360000D02*
X136310000Y-68360000D01*
G75*
G02*
X136110000Y-68160000I0J200000D01*
G01*
X136110000Y-64660000D01*
G75*
G02*
X136310000Y-64460000I200000J0D01*
G01*
X138010000Y-64460000D01*
G75*
G02*
X138210000Y-64660000I0J-200000D01*
G01*
X138210000Y-68160000D01*
G75*
G02*
X138010000Y-68360000I-200000J0D01*
G01*
G37*
G36*
G01*
X140550000Y-68360000D02*
X138850000Y-68360000D01*
G75*
G02*
X138650000Y-68160000I0J200000D01*
G01*
X138650000Y-64660000D01*
G75*
G02*
X138850000Y-64460000I200000J0D01*
G01*
X140550000Y-64460000D01*
G75*
G02*
X140750000Y-64660000I0J-200000D01*
G01*
X140750000Y-68160000D01*
G75*
G02*
X140550000Y-68360000I-200000J0D01*
G01*
G37*
G36*
G01*
X143090000Y-68360000D02*
X141390000Y-68360000D01*
G75*
G02*
X141190000Y-68160000I0J200000D01*
G01*
X141190000Y-64660000D01*
G75*
G02*
X141390000Y-64460000I200000J0D01*
G01*
X143090000Y-64460000D01*
G75*
G02*
X143290000Y-64660000I0J-200000D01*
G01*
X143290000Y-68160000D01*
G75*
G02*
X143090000Y-68360000I-200000J0D01*
G01*
G37*
G36*
G01*
X145630000Y-68360000D02*
X143930000Y-68360000D01*
G75*
G02*
X143730000Y-68160000I0J200000D01*
G01*
X143730000Y-64660000D01*
G75*
G02*
X143930000Y-64460000I200000J0D01*
G01*
X145630000Y-64460000D01*
G75*
G02*
X145830000Y-64660000I0J-200000D01*
G01*
X145830000Y-68160000D01*
G75*
G02*
X145630000Y-68360000I-200000J0D01*
G01*
G37*
G36*
G01*
X148170000Y-68360000D02*
X146470000Y-68360000D01*
G75*
G02*
X146270000Y-68160000I0J200000D01*
G01*
X146270000Y-64660000D01*
G75*
G02*
X146470000Y-64460000I200000J0D01*
G01*
X148170000Y-64460000D01*
G75*
G02*
X148370000Y-64660000I0J-200000D01*
G01*
X148370000Y-68160000D01*
G75*
G02*
X148170000Y-68360000I-200000J0D01*
G01*
G37*
G36*
G01*
X150710000Y-68360000D02*
X149010000Y-68360000D01*
G75*
G02*
X148810000Y-68160000I0J200000D01*
G01*
X148810000Y-64660000D01*
G75*
G02*
X149010000Y-64460000I200000J0D01*
G01*
X150710000Y-64460000D01*
G75*
G02*
X150910000Y-64660000I0J-200000D01*
G01*
X150910000Y-68160000D01*
G75*
G02*
X150710000Y-68360000I-200000J0D01*
G01*
G37*
G36*
G01*
X153250000Y-68360000D02*
X151550000Y-68360000D01*
G75*
G02*
X151350000Y-68160000I0J200000D01*
G01*
X151350000Y-64660000D01*
G75*
G02*
X151550000Y-64460000I200000J0D01*
G01*
X153250000Y-64460000D01*
G75*
G02*
X153450000Y-64660000I0J-200000D01*
G01*
X153450000Y-68160000D01*
G75*
G02*
X153250000Y-68360000I-200000J0D01*
G01*
G37*
G36*
G01*
X155790000Y-68360000D02*
X154090000Y-68360000D01*
G75*
G02*
X153890000Y-68160000I0J200000D01*
G01*
X153890000Y-64660000D01*
G75*
G02*
X154090000Y-64460000I200000J0D01*
G01*
X155790000Y-64460000D01*
G75*
G02*
X155990000Y-64660000I0J-200000D01*
G01*
X155990000Y-68160000D01*
G75*
G02*
X155790000Y-68360000I-200000J0D01*
G01*
G37*
G36*
G01*
X158330000Y-68360000D02*
X156630000Y-68360000D01*
G75*
G02*
X156430000Y-68160000I0J200000D01*
G01*
X156430000Y-64660000D01*
G75*
G02*
X156630000Y-64460000I200000J0D01*
G01*
X158330000Y-64460000D01*
G75*
G02*
X158530000Y-64660000I0J-200000D01*
G01*
X158530000Y-68160000D01*
G75*
G02*
X158330000Y-68360000I-200000J0D01*
G01*
G37*
G36*
G01*
X160870000Y-68360000D02*
X159170000Y-68360000D01*
G75*
G02*
X158970000Y-68160000I0J200000D01*
G01*
X158970000Y-64660000D01*
G75*
G02*
X159170000Y-64460000I200000J0D01*
G01*
X160870000Y-64460000D01*
G75*
G02*
X161070000Y-64660000I0J-200000D01*
G01*
X161070000Y-68160000D01*
G75*
G02*
X160870000Y-68360000I-200000J0D01*
G01*
G37*
D14*
X111890000Y-78925000D03*
X111890000Y-73475000D03*
D15*
X114920000Y-78625000D03*
X114920000Y-73775000D03*
G36*
G01*
X162640000Y-77890000D02*
X162640000Y-79590000D01*
G75*
G02*
X162440000Y-79790000I-200000J0D01*
G01*
X158940000Y-79790000D01*
G75*
G02*
X158740000Y-79590000I0J200000D01*
G01*
X158740000Y-77890000D01*
G75*
G02*
X158940000Y-77690000I200000J0D01*
G01*
X162440000Y-77690000D01*
G75*
G02*
X162640000Y-77890000I0J-200000D01*
G01*
G37*
D13*
X159790000Y-78740000D03*
G36*
G01*
X162640000Y-75350000D02*
X162640000Y-77050000D01*
G75*
G02*
X162440000Y-77250000I-200000J0D01*
G01*
X158940000Y-77250000D01*
G75*
G02*
X158740000Y-77050000I0J200000D01*
G01*
X158740000Y-75350000D01*
G75*
G02*
X158940000Y-75150000I200000J0D01*
G01*
X162440000Y-75150000D01*
G75*
G02*
X162640000Y-75350000I0J-200000D01*
G01*
G37*
G36*
G01*
X160640000Y-77250000D02*
X158940000Y-77250000D01*
G75*
G02*
X158740000Y-77050000I0J200000D01*
G01*
X158740000Y-75350000D01*
G75*
G02*
X158940000Y-75150000I200000J0D01*
G01*
X160640000Y-75150000D01*
G75*
G02*
X160840000Y-75350000I0J-200000D01*
G01*
X160840000Y-77050000D01*
G75*
G02*
X160640000Y-77250000I-200000J0D01*
G01*
G37*
G36*
G01*
X162640000Y-72810000D02*
X162640000Y-74510000D01*
G75*
G02*
X162440000Y-74710000I-200000J0D01*
G01*
X158940000Y-74710000D01*
G75*
G02*
X158740000Y-74510000I0J200000D01*
G01*
X158740000Y-72810000D01*
G75*
G02*
X158940000Y-72610000I200000J0D01*
G01*
X162440000Y-72610000D01*
G75*
G02*
X162640000Y-72810000I0J-200000D01*
G01*
G37*
X159790000Y-73660000D03*
%TD*%
D11*
%TO.C,Z14*%
X117000000Y-160000000D03*
%TD*%
%TO.C,Z11*%
X170000000Y-193000000D03*
%TD*%
%TO.C,Z10*%
X269000000Y-193000000D03*
%TD*%
%TO.C,SW26*%
G36*
G01*
X224800000Y-145500000D02*
X224800000Y-142500000D01*
G75*
G02*
X225000000Y-142300000I200000J0D01*
G01*
X228000000Y-142300000D01*
G75*
G02*
X228200000Y-142500000I0J-200000D01*
G01*
X228200000Y-145500000D01*
G75*
G02*
X228000000Y-145700000I-200000J0D01*
G01*
X225000000Y-145700000D01*
G75*
G02*
X224800000Y-145500000I0J200000D01*
G01*
G37*
D12*
X231500000Y-143500000D03*
%TD*%
%TO.C,SW16*%
G36*
G01*
X224800000Y-122250000D02*
X224800000Y-119250000D01*
G75*
G02*
X225000000Y-119050000I200000J0D01*
G01*
X228000000Y-119050000D01*
G75*
G02*
X228200000Y-119250000I0J-200000D01*
G01*
X228200000Y-122250000D01*
G75*
G02*
X228000000Y-122450000I-200000J0D01*
G01*
X225000000Y-122450000D01*
G75*
G02*
X224800000Y-122250000I0J200000D01*
G01*
G37*
X231500000Y-120250000D03*
%TD*%
D11*
%TO.C,Z2*%
X170000000Y-67500000D03*
%TD*%
%TO.C,SW12*%
G36*
G01*
X148800000Y-122250000D02*
X148800000Y-119250000D01*
G75*
G02*
X149000000Y-119050000I200000J0D01*
G01*
X152000000Y-119050000D01*
G75*
G02*
X152200000Y-119250000I0J-200000D01*
G01*
X152200000Y-122250000D01*
G75*
G02*
X152000000Y-122450000I-200000J0D01*
G01*
X149000000Y-122450000D01*
G75*
G02*
X148800000Y-122250000I0J200000D01*
G01*
G37*
D12*
X155500000Y-120250000D03*
%TD*%
%TO.C,SW28*%
G36*
G01*
X262800000Y-145500000D02*
X262800000Y-142500000D01*
G75*
G02*
X263000000Y-142300000I200000J0D01*
G01*
X266000000Y-142300000D01*
G75*
G02*
X266200000Y-142500000I0J-200000D01*
G01*
X266200000Y-145500000D01*
G75*
G02*
X266000000Y-145700000I-200000J0D01*
G01*
X263000000Y-145700000D01*
G75*
G02*
X262800000Y-145500000I0J200000D01*
G01*
G37*
X269500000Y-143500000D03*
%TD*%
%TO.C,SW27*%
G36*
G01*
X243800000Y-145500000D02*
X243800000Y-142500000D01*
G75*
G02*
X244000000Y-142300000I200000J0D01*
G01*
X247000000Y-142300000D01*
G75*
G02*
X247200000Y-142500000I0J-200000D01*
G01*
X247200000Y-145500000D01*
G75*
G02*
X247000000Y-145700000I-200000J0D01*
G01*
X244000000Y-145700000D01*
G75*
G02*
X243800000Y-145500000I0J200000D01*
G01*
G37*
X250500000Y-143500000D03*
%TD*%
%TO.C,SW6*%
G36*
G01*
X224800000Y-102000000D02*
X224800000Y-99000000D01*
G75*
G02*
X225000000Y-98800000I200000J0D01*
G01*
X228000000Y-98800000D01*
G75*
G02*
X228200000Y-99000000I0J-200000D01*
G01*
X228200000Y-102000000D01*
G75*
G02*
X228000000Y-102200000I-200000J0D01*
G01*
X225000000Y-102200000D01*
G75*
G02*
X224800000Y-102000000I0J200000D01*
G01*
G37*
X231500000Y-100000000D03*
%TD*%
%TO.C,SW9*%
G36*
G01*
X281800000Y-102000000D02*
X281800000Y-99000000D01*
G75*
G02*
X282000000Y-98800000I200000J0D01*
G01*
X285000000Y-98800000D01*
G75*
G02*
X285200000Y-99000000I0J-200000D01*
G01*
X285200000Y-102000000D01*
G75*
G02*
X285000000Y-102200000I-200000J0D01*
G01*
X282000000Y-102200000D01*
G75*
G02*
X281800000Y-102000000I0J200000D01*
G01*
G37*
X288500000Y-100000000D03*
%TD*%
%TO.C,SW5*%
G36*
G01*
X205800000Y-102000000D02*
X205800000Y-99000000D01*
G75*
G02*
X206000000Y-98800000I200000J0D01*
G01*
X209000000Y-98800000D01*
G75*
G02*
X209200000Y-99000000I0J-200000D01*
G01*
X209200000Y-102000000D01*
G75*
G02*
X209000000Y-102200000I-200000J0D01*
G01*
X206000000Y-102200000D01*
G75*
G02*
X205800000Y-102000000I0J200000D01*
G01*
G37*
X212500000Y-100000000D03*
%TD*%
%TO.C,SW23*%
G36*
G01*
X167800000Y-145500000D02*
X167800000Y-142500000D01*
G75*
G02*
X168000000Y-142300000I200000J0D01*
G01*
X171000000Y-142300000D01*
G75*
G02*
X171200000Y-142500000I0J-200000D01*
G01*
X171200000Y-145500000D01*
G75*
G02*
X171000000Y-145700000I-200000J0D01*
G01*
X168000000Y-145700000D01*
G75*
G02*
X167800000Y-145500000I0J200000D01*
G01*
G37*
X174500000Y-143500000D03*
%TD*%
%TO.C,SW19*%
G36*
G01*
X281800000Y-122250000D02*
X281800000Y-119250000D01*
G75*
G02*
X282000000Y-119050000I200000J0D01*
G01*
X285000000Y-119050000D01*
G75*
G02*
X285200000Y-119250000I0J-200000D01*
G01*
X285200000Y-122250000D01*
G75*
G02*
X285000000Y-122450000I-200000J0D01*
G01*
X282000000Y-122450000D01*
G75*
G02*
X281800000Y-122250000I0J200000D01*
G01*
G37*
X288500000Y-120250000D03*
%TD*%
%TO.C,SW31*%
G36*
G01*
X177300000Y-170500000D02*
X177300000Y-167500000D01*
G75*
G02*
X177500000Y-167300000I200000J0D01*
G01*
X180500000Y-167300000D01*
G75*
G02*
X180700000Y-167500000I0J-200000D01*
G01*
X180700000Y-170500000D01*
G75*
G02*
X180500000Y-170700000I-200000J0D01*
G01*
X177500000Y-170700000D01*
G75*
G02*
X177300000Y-170500000I0J200000D01*
G01*
G37*
X184000000Y-168500000D03*
%TD*%
D11*
%TO.C,Z3*%
X269000000Y-67500000D03*
%TD*%
%TO.C,SW30*%
G36*
G01*
X300800000Y-145500000D02*
X300800000Y-142500000D01*
G75*
G02*
X301000000Y-142300000I200000J0D01*
G01*
X304000000Y-142300000D01*
G75*
G02*
X304200000Y-142500000I0J-200000D01*
G01*
X304200000Y-145500000D01*
G75*
G02*
X304000000Y-145700000I-200000J0D01*
G01*
X301000000Y-145700000D01*
G75*
G02*
X300800000Y-145500000I0J200000D01*
G01*
G37*
D12*
X307500000Y-143500000D03*
%TD*%
%TO.C,SW18*%
G36*
G01*
X262800000Y-122250000D02*
X262800000Y-119250000D01*
G75*
G02*
X263000000Y-119050000I200000J0D01*
G01*
X266000000Y-119050000D01*
G75*
G02*
X266200000Y-119250000I0J-200000D01*
G01*
X266200000Y-122250000D01*
G75*
G02*
X266000000Y-122450000I-200000J0D01*
G01*
X263000000Y-122450000D01*
G75*
G02*
X262800000Y-122250000I0J200000D01*
G01*
G37*
X269500000Y-120250000D03*
%TD*%
%TO.C,SW14*%
G36*
G01*
X186800000Y-122250000D02*
X186800000Y-119250000D01*
G75*
G02*
X187000000Y-119050000I200000J0D01*
G01*
X190000000Y-119050000D01*
G75*
G02*
X190200000Y-119250000I0J-200000D01*
G01*
X190200000Y-122250000D01*
G75*
G02*
X190000000Y-122450000I-200000J0D01*
G01*
X187000000Y-122450000D01*
G75*
G02*
X186800000Y-122250000I0J200000D01*
G01*
G37*
X193500000Y-120250000D03*
%TD*%
D11*
%TO.C,Z13*%
X117000000Y-170000000D03*
%TD*%
%TO.C,SW34*%
G36*
G01*
X234300000Y-170500000D02*
X234300000Y-167500000D01*
G75*
G02*
X234500000Y-167300000I200000J0D01*
G01*
X237500000Y-167300000D01*
G75*
G02*
X237700000Y-167500000I0J-200000D01*
G01*
X237700000Y-170500000D01*
G75*
G02*
X237500000Y-170700000I-200000J0D01*
G01*
X234500000Y-170700000D01*
G75*
G02*
X234300000Y-170500000I0J200000D01*
G01*
G37*
D12*
X241000000Y-168500000D03*
%TD*%
D11*
%TO.C,Z7*%
X322000000Y-160000000D03*
%TD*%
%TO.C,Z5*%
X322000000Y-90500000D03*
%TD*%
%TO.C,Z6*%
X322000000Y-100500000D03*
%TD*%
%TO.C,SW11*%
G36*
G01*
X129800000Y-122250000D02*
X129800000Y-119250000D01*
G75*
G02*
X130000000Y-119050000I200000J0D01*
G01*
X133000000Y-119050000D01*
G75*
G02*
X133200000Y-119250000I0J-200000D01*
G01*
X133200000Y-122250000D01*
G75*
G02*
X133000000Y-122450000I-200000J0D01*
G01*
X130000000Y-122450000D01*
G75*
G02*
X129800000Y-122250000I0J200000D01*
G01*
G37*
D12*
X136500000Y-120250000D03*
%TD*%
%TO.C,SW20*%
G36*
G01*
X300800000Y-122250000D02*
X300800000Y-119250000D01*
G75*
G02*
X301000000Y-119050000I200000J0D01*
G01*
X304000000Y-119050000D01*
G75*
G02*
X304200000Y-119250000I0J-200000D01*
G01*
X304200000Y-122250000D01*
G75*
G02*
X304000000Y-122450000I-200000J0D01*
G01*
X301000000Y-122450000D01*
G75*
G02*
X300800000Y-122250000I0J200000D01*
G01*
G37*
X307500000Y-120250000D03*
%TD*%
%TO.C,SW8*%
G36*
G01*
X262800000Y-102000000D02*
X262800000Y-99000000D01*
G75*
G02*
X263000000Y-98800000I200000J0D01*
G01*
X266000000Y-98800000D01*
G75*
G02*
X266200000Y-99000000I0J-200000D01*
G01*
X266200000Y-102000000D01*
G75*
G02*
X266000000Y-102200000I-200000J0D01*
G01*
X263000000Y-102200000D01*
G75*
G02*
X262800000Y-102000000I0J200000D01*
G01*
G37*
X269500000Y-100000000D03*
%TD*%
%TO.C,SW10*%
G36*
G01*
X300800000Y-102000000D02*
X300800000Y-99000000D01*
G75*
G02*
X301000000Y-98800000I200000J0D01*
G01*
X304000000Y-98800000D01*
G75*
G02*
X304200000Y-99000000I0J-200000D01*
G01*
X304200000Y-102000000D01*
G75*
G02*
X304000000Y-102200000I-200000J0D01*
G01*
X301000000Y-102200000D01*
G75*
G02*
X300800000Y-102000000I0J200000D01*
G01*
G37*
X307500000Y-100000000D03*
%TD*%
D11*
%TO.C,Z4*%
X279000000Y-67500000D03*
%TD*%
%TO.C,SW33*%
G36*
G01*
X215300000Y-170500000D02*
X215300000Y-167500000D01*
G75*
G02*
X215500000Y-167300000I200000J0D01*
G01*
X218500000Y-167300000D01*
G75*
G02*
X218700000Y-167500000I0J-200000D01*
G01*
X218700000Y-170500000D01*
G75*
G02*
X218500000Y-170700000I-200000J0D01*
G01*
X215500000Y-170700000D01*
G75*
G02*
X215300000Y-170500000I0J200000D01*
G01*
G37*
D12*
X222000000Y-168500000D03*
%TD*%
%TO.C,SW13*%
G36*
G01*
X167800000Y-122250000D02*
X167800000Y-119250000D01*
G75*
G02*
X168000000Y-119050000I200000J0D01*
G01*
X171000000Y-119050000D01*
G75*
G02*
X171200000Y-119250000I0J-200000D01*
G01*
X171200000Y-122250000D01*
G75*
G02*
X171000000Y-122450000I-200000J0D01*
G01*
X168000000Y-122450000D01*
G75*
G02*
X167800000Y-122250000I0J200000D01*
G01*
G37*
X174500000Y-120250000D03*
%TD*%
%TO.C,SW7*%
G36*
G01*
X243800000Y-102000000D02*
X243800000Y-99000000D01*
G75*
G02*
X244000000Y-98800000I200000J0D01*
G01*
X247000000Y-98800000D01*
G75*
G02*
X247200000Y-99000000I0J-200000D01*
G01*
X247200000Y-102000000D01*
G75*
G02*
X247000000Y-102200000I-200000J0D01*
G01*
X244000000Y-102200000D01*
G75*
G02*
X243800000Y-102000000I0J200000D01*
G01*
G37*
X250500000Y-100000000D03*
%TD*%
%TO.C,SW29*%
G36*
G01*
X281800000Y-145500000D02*
X281800000Y-142500000D01*
G75*
G02*
X282000000Y-142300000I200000J0D01*
G01*
X285000000Y-142300000D01*
G75*
G02*
X285200000Y-142500000I0J-200000D01*
G01*
X285200000Y-145500000D01*
G75*
G02*
X285000000Y-145700000I-200000J0D01*
G01*
X282000000Y-145700000D01*
G75*
G02*
X281800000Y-145500000I0J200000D01*
G01*
G37*
X288500000Y-143500000D03*
%TD*%
%TO.C,SW21*%
G36*
G01*
X129800000Y-145500000D02*
X129800000Y-142500000D01*
G75*
G02*
X130000000Y-142300000I200000J0D01*
G01*
X133000000Y-142300000D01*
G75*
G02*
X133200000Y-142500000I0J-200000D01*
G01*
X133200000Y-145500000D01*
G75*
G02*
X133000000Y-145700000I-200000J0D01*
G01*
X130000000Y-145700000D01*
G75*
G02*
X129800000Y-145500000I0J200000D01*
G01*
G37*
X136500000Y-143500000D03*
%TD*%
%TO.C,SW32*%
G36*
G01*
X196300000Y-170500000D02*
X196300000Y-167500000D01*
G75*
G02*
X196500000Y-167300000I200000J0D01*
G01*
X199500000Y-167300000D01*
G75*
G02*
X199700000Y-167500000I0J-200000D01*
G01*
X199700000Y-170500000D01*
G75*
G02*
X199500000Y-170700000I-200000J0D01*
G01*
X196500000Y-170700000D01*
G75*
G02*
X196300000Y-170500000I0J200000D01*
G01*
G37*
X203000000Y-168500000D03*
%TD*%
%TO.C,SW17*%
G36*
G01*
X243800000Y-122250000D02*
X243800000Y-119250000D01*
G75*
G02*
X244000000Y-119050000I200000J0D01*
G01*
X247000000Y-119050000D01*
G75*
G02*
X247200000Y-119250000I0J-200000D01*
G01*
X247200000Y-122250000D01*
G75*
G02*
X247000000Y-122450000I-200000J0D01*
G01*
X244000000Y-122450000D01*
G75*
G02*
X243800000Y-122250000I0J200000D01*
G01*
G37*
X250500000Y-120250000D03*
%TD*%
%TO.C,SW2*%
G36*
G01*
X148800000Y-102000000D02*
X148800000Y-99000000D01*
G75*
G02*
X149000000Y-98800000I200000J0D01*
G01*
X152000000Y-98800000D01*
G75*
G02*
X152200000Y-99000000I0J-200000D01*
G01*
X152200000Y-102000000D01*
G75*
G02*
X152000000Y-102200000I-200000J0D01*
G01*
X149000000Y-102200000D01*
G75*
G02*
X148800000Y-102000000I0J200000D01*
G01*
G37*
X155500000Y-100000000D03*
%TD*%
%TO.C,SW3*%
G36*
G01*
X167800000Y-102000000D02*
X167800000Y-99000000D01*
G75*
G02*
X168000000Y-98800000I200000J0D01*
G01*
X171000000Y-98800000D01*
G75*
G02*
X171200000Y-99000000I0J-200000D01*
G01*
X171200000Y-102000000D01*
G75*
G02*
X171000000Y-102200000I-200000J0D01*
G01*
X168000000Y-102200000D01*
G75*
G02*
X167800000Y-102000000I0J200000D01*
G01*
G37*
X174500000Y-100000000D03*
%TD*%
D11*
%TO.C,Z8*%
X322000000Y-170000000D03*
%TD*%
%TO.C,SW24*%
G36*
G01*
X186800000Y-145500000D02*
X186800000Y-142500000D01*
G75*
G02*
X187000000Y-142300000I200000J0D01*
G01*
X190000000Y-142300000D01*
G75*
G02*
X190200000Y-142500000I0J-200000D01*
G01*
X190200000Y-145500000D01*
G75*
G02*
X190000000Y-145700000I-200000J0D01*
G01*
X187000000Y-145700000D01*
G75*
G02*
X186800000Y-145500000I0J200000D01*
G01*
G37*
D12*
X193500000Y-143500000D03*
%TD*%
%TO.C,SW4*%
G36*
G01*
X186800000Y-102000000D02*
X186800000Y-99000000D01*
G75*
G02*
X187000000Y-98800000I200000J0D01*
G01*
X190000000Y-98800000D01*
G75*
G02*
X190200000Y-99000000I0J-200000D01*
G01*
X190200000Y-102000000D01*
G75*
G02*
X190000000Y-102200000I-200000J0D01*
G01*
X187000000Y-102200000D01*
G75*
G02*
X186800000Y-102000000I0J200000D01*
G01*
G37*
X193500000Y-100000000D03*
%TD*%
D11*
%TO.C,Z15*%
X117000000Y-100500000D03*
%TD*%
%TO.C,SW22*%
G36*
G01*
X148800000Y-145500000D02*
X148800000Y-142500000D01*
G75*
G02*
X149000000Y-142300000I200000J0D01*
G01*
X152000000Y-142300000D01*
G75*
G02*
X152200000Y-142500000I0J-200000D01*
G01*
X152200000Y-145500000D01*
G75*
G02*
X152000000Y-145700000I-200000J0D01*
G01*
X149000000Y-145700000D01*
G75*
G02*
X148800000Y-145500000I0J200000D01*
G01*
G37*
D12*
X155500000Y-143500000D03*
%TD*%
M02*
