%TF.GenerationSoftware,KiCad,Pcbnew,5.1.10-88a1d61d58~88~ubuntu20.04.1*%
%TF.CreationDate,2021-05-31T17:58:19-07:00*%
%TF.ProjectId,Stenokey,5374656e-6f6b-4657-992e-6b696361645f,1.0*%
%TF.SameCoordinates,Original*%
%TF.FileFunction,Soldermask,Bot*%
%TF.FilePolarity,Negative*%
%FSLAX46Y46*%
G04 Gerber Fmt 4.6, Leading zero omitted, Abs format (unit mm)*
G04 Created by KiCad (PCBNEW 5.1.10-88a1d61d58~88~ubuntu20.04.1) date 2021-05-31 17:58:19*
%MOMM*%
%LPD*%
G01*
G04 APERTURE LIST*
%ADD10C,0.300000*%
%ADD11O,2.100000X2.100000*%
%ADD12O,2.200000X2.200000*%
%ADD13O,1.900000X1.900000*%
%ADD14C,8.400000*%
%ADD15C,3.400000*%
G04 APERTURE END LIST*
D10*
X133071428Y-201250000D02*
X133214285Y-201178571D01*
X133428571Y-201178571D01*
X133642857Y-201250000D01*
X133785714Y-201392857D01*
X133857142Y-201535714D01*
X133928571Y-201821428D01*
X133928571Y-202035714D01*
X133857142Y-202321428D01*
X133785714Y-202464285D01*
X133642857Y-202607142D01*
X133428571Y-202678571D01*
X133285714Y-202678571D01*
X133071428Y-202607142D01*
X133000000Y-202535714D01*
X133000000Y-202035714D01*
X133285714Y-202035714D01*
X131857142Y-201892857D02*
X131642857Y-201964285D01*
X131571428Y-202035714D01*
X131500000Y-202178571D01*
X131500000Y-202392857D01*
X131571428Y-202535714D01*
X131642857Y-202607142D01*
X131785714Y-202678571D01*
X132357142Y-202678571D01*
X132357142Y-201178571D01*
X131857142Y-201178571D01*
X131714285Y-201250000D01*
X131642857Y-201321428D01*
X131571428Y-201464285D01*
X131571428Y-201607142D01*
X131642857Y-201750000D01*
X131714285Y-201821428D01*
X131857142Y-201892857D01*
X132357142Y-201892857D01*
X130928571Y-202607142D02*
X130714285Y-202678571D01*
X130357142Y-202678571D01*
X130214285Y-202607142D01*
X130142857Y-202535714D01*
X130071428Y-202392857D01*
X130071428Y-202250000D01*
X130142857Y-202107142D01*
X130214285Y-202035714D01*
X130357142Y-201964285D01*
X130642857Y-201892857D01*
X130785714Y-201821428D01*
X130857142Y-201750000D01*
X130928571Y-201607142D01*
X130928571Y-201464285D01*
X130857142Y-201321428D01*
X130785714Y-201250000D01*
X130642857Y-201178571D01*
X130285714Y-201178571D01*
X130071428Y-201250000D01*
D11*
%TO.C,U1*%
X111760000Y-87630000D03*
X114300000Y-87630000D03*
G36*
G01*
X117690000Y-88680000D02*
X115990000Y-88680000D01*
G75*
G02*
X115790000Y-88480000I0J200000D01*
G01*
X115790000Y-86780000D01*
G75*
G02*
X115990000Y-86580000I200000J0D01*
G01*
X117690000Y-86580000D01*
G75*
G02*
X117890000Y-86780000I0J-200000D01*
G01*
X117890000Y-88480000D01*
G75*
G02*
X117690000Y-88680000I-200000J0D01*
G01*
G37*
X119380000Y-87630000D03*
X121920000Y-87630000D03*
X124460000Y-87630000D03*
X127000000Y-87630000D03*
G36*
G01*
X130390000Y-88680000D02*
X128690000Y-88680000D01*
G75*
G02*
X128490000Y-88480000I0J200000D01*
G01*
X128490000Y-86780000D01*
G75*
G02*
X128690000Y-86580000I200000J0D01*
G01*
X130390000Y-86580000D01*
G75*
G02*
X130590000Y-86780000I0J-200000D01*
G01*
X130590000Y-88480000D01*
G75*
G02*
X130390000Y-88680000I-200000J0D01*
G01*
G37*
X132080000Y-87630000D03*
X134620000Y-87630000D03*
X137160000Y-87630000D03*
X139700000Y-87630000D03*
G36*
G01*
X143090000Y-88680000D02*
X141390000Y-88680000D01*
G75*
G02*
X141190000Y-88480000I0J200000D01*
G01*
X141190000Y-86780000D01*
G75*
G02*
X141390000Y-86580000I200000J0D01*
G01*
X143090000Y-86580000D01*
G75*
G02*
X143290000Y-86780000I0J-200000D01*
G01*
X143290000Y-88480000D01*
G75*
G02*
X143090000Y-88680000I-200000J0D01*
G01*
G37*
X144780000Y-87630000D03*
X147320000Y-87630000D03*
X149860000Y-87630000D03*
X152400000Y-87630000D03*
G36*
G01*
X155790000Y-88680000D02*
X154090000Y-88680000D01*
G75*
G02*
X153890000Y-88480000I0J200000D01*
G01*
X153890000Y-86780000D01*
G75*
G02*
X154090000Y-86580000I200000J0D01*
G01*
X155790000Y-86580000D01*
G75*
G02*
X155990000Y-86780000I0J-200000D01*
G01*
X155990000Y-88480000D01*
G75*
G02*
X155790000Y-88680000I-200000J0D01*
G01*
G37*
X157480000Y-87630000D03*
X160020000Y-87630000D03*
X160020000Y-69850000D03*
X157480000Y-69850000D03*
G36*
G01*
X155790000Y-70900000D02*
X154090000Y-70900000D01*
G75*
G02*
X153890000Y-70700000I0J200000D01*
G01*
X153890000Y-69000000D01*
G75*
G02*
X154090000Y-68800000I200000J0D01*
G01*
X155790000Y-68800000D01*
G75*
G02*
X155990000Y-69000000I0J-200000D01*
G01*
X155990000Y-70700000D01*
G75*
G02*
X155790000Y-70900000I-200000J0D01*
G01*
G37*
X152400000Y-69850000D03*
X149860000Y-69850000D03*
X147320000Y-69850000D03*
X144780000Y-69850000D03*
G36*
G01*
X143090000Y-70900000D02*
X141390000Y-70900000D01*
G75*
G02*
X141190000Y-70700000I0J200000D01*
G01*
X141190000Y-69000000D01*
G75*
G02*
X141390000Y-68800000I200000J0D01*
G01*
X143090000Y-68800000D01*
G75*
G02*
X143290000Y-69000000I0J-200000D01*
G01*
X143290000Y-70700000D01*
G75*
G02*
X143090000Y-70900000I-200000J0D01*
G01*
G37*
X139700000Y-69850000D03*
X137160000Y-69850000D03*
X134620000Y-69850000D03*
X132080000Y-69850000D03*
G36*
G01*
X130390000Y-70900000D02*
X128690000Y-70900000D01*
G75*
G02*
X128490000Y-70700000I0J200000D01*
G01*
X128490000Y-69000000D01*
G75*
G02*
X128690000Y-68800000I200000J0D01*
G01*
X130390000Y-68800000D01*
G75*
G02*
X130590000Y-69000000I0J-200000D01*
G01*
X130590000Y-70700000D01*
G75*
G02*
X130390000Y-70900000I-200000J0D01*
G01*
G37*
X127000000Y-69850000D03*
X124460000Y-69850000D03*
X121920000Y-69850000D03*
X119380000Y-69850000D03*
G36*
G01*
X117690000Y-70900000D02*
X115990000Y-70900000D01*
G75*
G02*
X115790000Y-70700000I0J200000D01*
G01*
X115790000Y-69000000D01*
G75*
G02*
X115990000Y-68800000I200000J0D01*
G01*
X117690000Y-68800000D01*
G75*
G02*
X117890000Y-69000000I0J-200000D01*
G01*
X117890000Y-70700000D01*
G75*
G02*
X117690000Y-70900000I-200000J0D01*
G01*
G37*
X114300000Y-69850000D03*
X111760000Y-69850000D03*
D12*
X111890000Y-81465000D03*
X111890000Y-76015000D03*
D13*
X114920000Y-81165000D03*
X114920000Y-76315000D03*
D11*
X159790000Y-81280000D03*
G36*
G01*
X160640000Y-79790000D02*
X158940000Y-79790000D01*
G75*
G02*
X158740000Y-79590000I0J200000D01*
G01*
X158740000Y-77890000D01*
G75*
G02*
X158940000Y-77690000I200000J0D01*
G01*
X160640000Y-77690000D01*
G75*
G02*
X160840000Y-77890000I0J-200000D01*
G01*
X160840000Y-79590000D01*
G75*
G02*
X160640000Y-79790000I-200000J0D01*
G01*
G37*
X159790000Y-76200000D03*
%TD*%
D14*
%TO.C,Z4*%
X279000000Y-67500000D03*
%TD*%
%TO.C,Z5*%
X322000000Y-90500000D03*
%TD*%
%TO.C,SW1*%
G36*
G01*
X129800000Y-102000000D02*
X129800000Y-99000000D01*
G75*
G02*
X130000000Y-98800000I200000J0D01*
G01*
X133000000Y-98800000D01*
G75*
G02*
X133200000Y-99000000I0J-200000D01*
G01*
X133200000Y-102000000D01*
G75*
G02*
X133000000Y-102200000I-200000J0D01*
G01*
X130000000Y-102200000D01*
G75*
G02*
X129800000Y-102000000I0J200000D01*
G01*
G37*
D15*
X136500000Y-100000000D03*
%TD*%
%TO.C,SW2*%
G36*
G01*
X148800000Y-102000000D02*
X148800000Y-99000000D01*
G75*
G02*
X149000000Y-98800000I200000J0D01*
G01*
X152000000Y-98800000D01*
G75*
G02*
X152200000Y-99000000I0J-200000D01*
G01*
X152200000Y-102000000D01*
G75*
G02*
X152000000Y-102200000I-200000J0D01*
G01*
X149000000Y-102200000D01*
G75*
G02*
X148800000Y-102000000I0J200000D01*
G01*
G37*
X155500000Y-100000000D03*
%TD*%
%TO.C,SW3*%
G36*
G01*
X167800000Y-102000000D02*
X167800000Y-99000000D01*
G75*
G02*
X168000000Y-98800000I200000J0D01*
G01*
X171000000Y-98800000D01*
G75*
G02*
X171200000Y-99000000I0J-200000D01*
G01*
X171200000Y-102000000D01*
G75*
G02*
X171000000Y-102200000I-200000J0D01*
G01*
X168000000Y-102200000D01*
G75*
G02*
X167800000Y-102000000I0J200000D01*
G01*
G37*
X174500000Y-100000000D03*
%TD*%
%TO.C,SW4*%
G36*
G01*
X186800000Y-102000000D02*
X186800000Y-99000000D01*
G75*
G02*
X187000000Y-98800000I200000J0D01*
G01*
X190000000Y-98800000D01*
G75*
G02*
X190200000Y-99000000I0J-200000D01*
G01*
X190200000Y-102000000D01*
G75*
G02*
X190000000Y-102200000I-200000J0D01*
G01*
X187000000Y-102200000D01*
G75*
G02*
X186800000Y-102000000I0J200000D01*
G01*
G37*
X193500000Y-100000000D03*
%TD*%
%TO.C,SW5*%
G36*
G01*
X205800000Y-102000000D02*
X205800000Y-99000000D01*
G75*
G02*
X206000000Y-98800000I200000J0D01*
G01*
X209000000Y-98800000D01*
G75*
G02*
X209200000Y-99000000I0J-200000D01*
G01*
X209200000Y-102000000D01*
G75*
G02*
X209000000Y-102200000I-200000J0D01*
G01*
X206000000Y-102200000D01*
G75*
G02*
X205800000Y-102000000I0J200000D01*
G01*
G37*
X212500000Y-100000000D03*
%TD*%
%TO.C,SW6*%
G36*
G01*
X224800000Y-102000000D02*
X224800000Y-99000000D01*
G75*
G02*
X225000000Y-98800000I200000J0D01*
G01*
X228000000Y-98800000D01*
G75*
G02*
X228200000Y-99000000I0J-200000D01*
G01*
X228200000Y-102000000D01*
G75*
G02*
X228000000Y-102200000I-200000J0D01*
G01*
X225000000Y-102200000D01*
G75*
G02*
X224800000Y-102000000I0J200000D01*
G01*
G37*
X231500000Y-100000000D03*
%TD*%
%TO.C,SW7*%
G36*
G01*
X243800000Y-102000000D02*
X243800000Y-99000000D01*
G75*
G02*
X244000000Y-98800000I200000J0D01*
G01*
X247000000Y-98800000D01*
G75*
G02*
X247200000Y-99000000I0J-200000D01*
G01*
X247200000Y-102000000D01*
G75*
G02*
X247000000Y-102200000I-200000J0D01*
G01*
X244000000Y-102200000D01*
G75*
G02*
X243800000Y-102000000I0J200000D01*
G01*
G37*
X250500000Y-100000000D03*
%TD*%
%TO.C,SW8*%
G36*
G01*
X262800000Y-102000000D02*
X262800000Y-99000000D01*
G75*
G02*
X263000000Y-98800000I200000J0D01*
G01*
X266000000Y-98800000D01*
G75*
G02*
X266200000Y-99000000I0J-200000D01*
G01*
X266200000Y-102000000D01*
G75*
G02*
X266000000Y-102200000I-200000J0D01*
G01*
X263000000Y-102200000D01*
G75*
G02*
X262800000Y-102000000I0J200000D01*
G01*
G37*
X269500000Y-100000000D03*
%TD*%
%TO.C,SW9*%
G36*
G01*
X281800000Y-102000000D02*
X281800000Y-99000000D01*
G75*
G02*
X282000000Y-98800000I200000J0D01*
G01*
X285000000Y-98800000D01*
G75*
G02*
X285200000Y-99000000I0J-200000D01*
G01*
X285200000Y-102000000D01*
G75*
G02*
X285000000Y-102200000I-200000J0D01*
G01*
X282000000Y-102200000D01*
G75*
G02*
X281800000Y-102000000I0J200000D01*
G01*
G37*
X288500000Y-100000000D03*
%TD*%
%TO.C,SW10*%
G36*
G01*
X300800000Y-102000000D02*
X300800000Y-99000000D01*
G75*
G02*
X301000000Y-98800000I200000J0D01*
G01*
X304000000Y-98800000D01*
G75*
G02*
X304200000Y-99000000I0J-200000D01*
G01*
X304200000Y-102000000D01*
G75*
G02*
X304000000Y-102200000I-200000J0D01*
G01*
X301000000Y-102200000D01*
G75*
G02*
X300800000Y-102000000I0J200000D01*
G01*
G37*
X307500000Y-100000000D03*
%TD*%
%TO.C,SW11*%
G36*
G01*
X129800000Y-122250000D02*
X129800000Y-119250000D01*
G75*
G02*
X130000000Y-119050000I200000J0D01*
G01*
X133000000Y-119050000D01*
G75*
G02*
X133200000Y-119250000I0J-200000D01*
G01*
X133200000Y-122250000D01*
G75*
G02*
X133000000Y-122450000I-200000J0D01*
G01*
X130000000Y-122450000D01*
G75*
G02*
X129800000Y-122250000I0J200000D01*
G01*
G37*
X136500000Y-120250000D03*
%TD*%
%TO.C,SW12*%
G36*
G01*
X148800000Y-122250000D02*
X148800000Y-119250000D01*
G75*
G02*
X149000000Y-119050000I200000J0D01*
G01*
X152000000Y-119050000D01*
G75*
G02*
X152200000Y-119250000I0J-200000D01*
G01*
X152200000Y-122250000D01*
G75*
G02*
X152000000Y-122450000I-200000J0D01*
G01*
X149000000Y-122450000D01*
G75*
G02*
X148800000Y-122250000I0J200000D01*
G01*
G37*
X155500000Y-120250000D03*
%TD*%
%TO.C,SW13*%
G36*
G01*
X167800000Y-122250000D02*
X167800000Y-119250000D01*
G75*
G02*
X168000000Y-119050000I200000J0D01*
G01*
X171000000Y-119050000D01*
G75*
G02*
X171200000Y-119250000I0J-200000D01*
G01*
X171200000Y-122250000D01*
G75*
G02*
X171000000Y-122450000I-200000J0D01*
G01*
X168000000Y-122450000D01*
G75*
G02*
X167800000Y-122250000I0J200000D01*
G01*
G37*
X174500000Y-120250000D03*
%TD*%
%TO.C,SW14*%
G36*
G01*
X186800000Y-122250000D02*
X186800000Y-119250000D01*
G75*
G02*
X187000000Y-119050000I200000J0D01*
G01*
X190000000Y-119050000D01*
G75*
G02*
X190200000Y-119250000I0J-200000D01*
G01*
X190200000Y-122250000D01*
G75*
G02*
X190000000Y-122450000I-200000J0D01*
G01*
X187000000Y-122450000D01*
G75*
G02*
X186800000Y-122250000I0J200000D01*
G01*
G37*
X193500000Y-120250000D03*
%TD*%
%TO.C,SW15*%
G36*
G01*
X205800000Y-122250000D02*
X205800000Y-119250000D01*
G75*
G02*
X206000000Y-119050000I200000J0D01*
G01*
X209000000Y-119050000D01*
G75*
G02*
X209200000Y-119250000I0J-200000D01*
G01*
X209200000Y-122250000D01*
G75*
G02*
X209000000Y-122450000I-200000J0D01*
G01*
X206000000Y-122450000D01*
G75*
G02*
X205800000Y-122250000I0J200000D01*
G01*
G37*
X212500000Y-120250000D03*
%TD*%
%TO.C,SW16*%
G36*
G01*
X224800000Y-122250000D02*
X224800000Y-119250000D01*
G75*
G02*
X225000000Y-119050000I200000J0D01*
G01*
X228000000Y-119050000D01*
G75*
G02*
X228200000Y-119250000I0J-200000D01*
G01*
X228200000Y-122250000D01*
G75*
G02*
X228000000Y-122450000I-200000J0D01*
G01*
X225000000Y-122450000D01*
G75*
G02*
X224800000Y-122250000I0J200000D01*
G01*
G37*
X231500000Y-120250000D03*
%TD*%
%TO.C,SW17*%
G36*
G01*
X243800000Y-122250000D02*
X243800000Y-119250000D01*
G75*
G02*
X244000000Y-119050000I200000J0D01*
G01*
X247000000Y-119050000D01*
G75*
G02*
X247200000Y-119250000I0J-200000D01*
G01*
X247200000Y-122250000D01*
G75*
G02*
X247000000Y-122450000I-200000J0D01*
G01*
X244000000Y-122450000D01*
G75*
G02*
X243800000Y-122250000I0J200000D01*
G01*
G37*
X250500000Y-120250000D03*
%TD*%
%TO.C,SW18*%
G36*
G01*
X262800000Y-122250000D02*
X262800000Y-119250000D01*
G75*
G02*
X263000000Y-119050000I200000J0D01*
G01*
X266000000Y-119050000D01*
G75*
G02*
X266200000Y-119250000I0J-200000D01*
G01*
X266200000Y-122250000D01*
G75*
G02*
X266000000Y-122450000I-200000J0D01*
G01*
X263000000Y-122450000D01*
G75*
G02*
X262800000Y-122250000I0J200000D01*
G01*
G37*
X269500000Y-120250000D03*
%TD*%
%TO.C,SW19*%
G36*
G01*
X281800000Y-122250000D02*
X281800000Y-119250000D01*
G75*
G02*
X282000000Y-119050000I200000J0D01*
G01*
X285000000Y-119050000D01*
G75*
G02*
X285200000Y-119250000I0J-200000D01*
G01*
X285200000Y-122250000D01*
G75*
G02*
X285000000Y-122450000I-200000J0D01*
G01*
X282000000Y-122450000D01*
G75*
G02*
X281800000Y-122250000I0J200000D01*
G01*
G37*
X288500000Y-120250000D03*
%TD*%
%TO.C,SW20*%
G36*
G01*
X300800000Y-122250000D02*
X300800000Y-119250000D01*
G75*
G02*
X301000000Y-119050000I200000J0D01*
G01*
X304000000Y-119050000D01*
G75*
G02*
X304200000Y-119250000I0J-200000D01*
G01*
X304200000Y-122250000D01*
G75*
G02*
X304000000Y-122450000I-200000J0D01*
G01*
X301000000Y-122450000D01*
G75*
G02*
X300800000Y-122250000I0J200000D01*
G01*
G37*
X307500000Y-120250000D03*
%TD*%
%TO.C,SW21*%
G36*
G01*
X129800000Y-145500000D02*
X129800000Y-142500000D01*
G75*
G02*
X130000000Y-142300000I200000J0D01*
G01*
X133000000Y-142300000D01*
G75*
G02*
X133200000Y-142500000I0J-200000D01*
G01*
X133200000Y-145500000D01*
G75*
G02*
X133000000Y-145700000I-200000J0D01*
G01*
X130000000Y-145700000D01*
G75*
G02*
X129800000Y-145500000I0J200000D01*
G01*
G37*
X136500000Y-143500000D03*
%TD*%
%TO.C,SW22*%
G36*
G01*
X148800000Y-145500000D02*
X148800000Y-142500000D01*
G75*
G02*
X149000000Y-142300000I200000J0D01*
G01*
X152000000Y-142300000D01*
G75*
G02*
X152200000Y-142500000I0J-200000D01*
G01*
X152200000Y-145500000D01*
G75*
G02*
X152000000Y-145700000I-200000J0D01*
G01*
X149000000Y-145700000D01*
G75*
G02*
X148800000Y-145500000I0J200000D01*
G01*
G37*
X155500000Y-143500000D03*
%TD*%
%TO.C,SW23*%
G36*
G01*
X167800000Y-145500000D02*
X167800000Y-142500000D01*
G75*
G02*
X168000000Y-142300000I200000J0D01*
G01*
X171000000Y-142300000D01*
G75*
G02*
X171200000Y-142500000I0J-200000D01*
G01*
X171200000Y-145500000D01*
G75*
G02*
X171000000Y-145700000I-200000J0D01*
G01*
X168000000Y-145700000D01*
G75*
G02*
X167800000Y-145500000I0J200000D01*
G01*
G37*
X174500000Y-143500000D03*
%TD*%
%TO.C,SW24*%
G36*
G01*
X186800000Y-145500000D02*
X186800000Y-142500000D01*
G75*
G02*
X187000000Y-142300000I200000J0D01*
G01*
X190000000Y-142300000D01*
G75*
G02*
X190200000Y-142500000I0J-200000D01*
G01*
X190200000Y-145500000D01*
G75*
G02*
X190000000Y-145700000I-200000J0D01*
G01*
X187000000Y-145700000D01*
G75*
G02*
X186800000Y-145500000I0J200000D01*
G01*
G37*
X193500000Y-143500000D03*
%TD*%
%TO.C,SW25*%
G36*
G01*
X205800000Y-145500000D02*
X205800000Y-142500000D01*
G75*
G02*
X206000000Y-142300000I200000J0D01*
G01*
X209000000Y-142300000D01*
G75*
G02*
X209200000Y-142500000I0J-200000D01*
G01*
X209200000Y-145500000D01*
G75*
G02*
X209000000Y-145700000I-200000J0D01*
G01*
X206000000Y-145700000D01*
G75*
G02*
X205800000Y-145500000I0J200000D01*
G01*
G37*
X212500000Y-143500000D03*
%TD*%
%TO.C,SW26*%
G36*
G01*
X224800000Y-145500000D02*
X224800000Y-142500000D01*
G75*
G02*
X225000000Y-142300000I200000J0D01*
G01*
X228000000Y-142300000D01*
G75*
G02*
X228200000Y-142500000I0J-200000D01*
G01*
X228200000Y-145500000D01*
G75*
G02*
X228000000Y-145700000I-200000J0D01*
G01*
X225000000Y-145700000D01*
G75*
G02*
X224800000Y-145500000I0J200000D01*
G01*
G37*
X231500000Y-143500000D03*
%TD*%
%TO.C,SW27*%
G36*
G01*
X243800000Y-145500000D02*
X243800000Y-142500000D01*
G75*
G02*
X244000000Y-142300000I200000J0D01*
G01*
X247000000Y-142300000D01*
G75*
G02*
X247200000Y-142500000I0J-200000D01*
G01*
X247200000Y-145500000D01*
G75*
G02*
X247000000Y-145700000I-200000J0D01*
G01*
X244000000Y-145700000D01*
G75*
G02*
X243800000Y-145500000I0J200000D01*
G01*
G37*
X250500000Y-143500000D03*
%TD*%
%TO.C,SW28*%
G36*
G01*
X262800000Y-145500000D02*
X262800000Y-142500000D01*
G75*
G02*
X263000000Y-142300000I200000J0D01*
G01*
X266000000Y-142300000D01*
G75*
G02*
X266200000Y-142500000I0J-200000D01*
G01*
X266200000Y-145500000D01*
G75*
G02*
X266000000Y-145700000I-200000J0D01*
G01*
X263000000Y-145700000D01*
G75*
G02*
X262800000Y-145500000I0J200000D01*
G01*
G37*
X269500000Y-143500000D03*
%TD*%
%TO.C,SW29*%
G36*
G01*
X281800000Y-145500000D02*
X281800000Y-142500000D01*
G75*
G02*
X282000000Y-142300000I200000J0D01*
G01*
X285000000Y-142300000D01*
G75*
G02*
X285200000Y-142500000I0J-200000D01*
G01*
X285200000Y-145500000D01*
G75*
G02*
X285000000Y-145700000I-200000J0D01*
G01*
X282000000Y-145700000D01*
G75*
G02*
X281800000Y-145500000I0J200000D01*
G01*
G37*
X288500000Y-143500000D03*
%TD*%
%TO.C,SW30*%
G36*
G01*
X300800000Y-145500000D02*
X300800000Y-142500000D01*
G75*
G02*
X301000000Y-142300000I200000J0D01*
G01*
X304000000Y-142300000D01*
G75*
G02*
X304200000Y-142500000I0J-200000D01*
G01*
X304200000Y-145500000D01*
G75*
G02*
X304000000Y-145700000I-200000J0D01*
G01*
X301000000Y-145700000D01*
G75*
G02*
X300800000Y-145500000I0J200000D01*
G01*
G37*
X307500000Y-143500000D03*
%TD*%
%TO.C,SW31*%
G36*
G01*
X177300000Y-170500000D02*
X177300000Y-167500000D01*
G75*
G02*
X177500000Y-167300000I200000J0D01*
G01*
X180500000Y-167300000D01*
G75*
G02*
X180700000Y-167500000I0J-200000D01*
G01*
X180700000Y-170500000D01*
G75*
G02*
X180500000Y-170700000I-200000J0D01*
G01*
X177500000Y-170700000D01*
G75*
G02*
X177300000Y-170500000I0J200000D01*
G01*
G37*
X184000000Y-168500000D03*
%TD*%
%TO.C,SW32*%
G36*
G01*
X196300000Y-170500000D02*
X196300000Y-167500000D01*
G75*
G02*
X196500000Y-167300000I200000J0D01*
G01*
X199500000Y-167300000D01*
G75*
G02*
X199700000Y-167500000I0J-200000D01*
G01*
X199700000Y-170500000D01*
G75*
G02*
X199500000Y-170700000I-200000J0D01*
G01*
X196500000Y-170700000D01*
G75*
G02*
X196300000Y-170500000I0J200000D01*
G01*
G37*
X203000000Y-168500000D03*
%TD*%
%TO.C,SW33*%
G36*
G01*
X215300000Y-170500000D02*
X215300000Y-167500000D01*
G75*
G02*
X215500000Y-167300000I200000J0D01*
G01*
X218500000Y-167300000D01*
G75*
G02*
X218700000Y-167500000I0J-200000D01*
G01*
X218700000Y-170500000D01*
G75*
G02*
X218500000Y-170700000I-200000J0D01*
G01*
X215500000Y-170700000D01*
G75*
G02*
X215300000Y-170500000I0J200000D01*
G01*
G37*
X222000000Y-168500000D03*
%TD*%
%TO.C,SW34*%
G36*
G01*
X234300000Y-170500000D02*
X234300000Y-167500000D01*
G75*
G02*
X234500000Y-167300000I200000J0D01*
G01*
X237500000Y-167300000D01*
G75*
G02*
X237700000Y-167500000I0J-200000D01*
G01*
X237700000Y-170500000D01*
G75*
G02*
X237500000Y-170700000I-200000J0D01*
G01*
X234500000Y-170700000D01*
G75*
G02*
X234300000Y-170500000I0J200000D01*
G01*
G37*
X241000000Y-168500000D03*
%TD*%
D14*
%TO.C,Z2*%
X170000000Y-67500000D03*
%TD*%
%TO.C,Z3*%
X269000000Y-67500000D03*
%TD*%
%TO.C,Z6*%
X322000000Y-100500000D03*
%TD*%
%TO.C,Z7*%
X322000000Y-160000000D03*
%TD*%
%TO.C,Z8*%
X322000000Y-170000000D03*
%TD*%
%TO.C,Z9*%
X279000000Y-193000000D03*
%TD*%
%TO.C,Z10*%
X269000000Y-193000000D03*
%TD*%
%TO.C,Z11*%
X170000000Y-193000000D03*
%TD*%
%TO.C,Z12*%
X160000000Y-193000000D03*
%TD*%
%TO.C,Z13*%
X117000000Y-170000000D03*
%TD*%
%TO.C,Z14*%
X117000000Y-160000000D03*
%TD*%
%TO.C,Z15*%
X117000000Y-100500000D03*
%TD*%
%TO.C,Z1*%
X216090000Y-57340000D03*
%TD*%
%TO.C,Z16*%
X225090000Y-57340000D03*
%TD*%
M02*
