M48
; DRILL file {KiCad 5.1.10-88a1d61d58~88~ubuntu20.04.1} date Mon May 31 17:58:10 2021
; FORMAT={-:-/ absolute / inch / decimal}
; #@! TF.CreationDate,2021-05-31T17:58:10-07:00
; #@! TF.GenerationSoftware,Kicad,Pcbnew,5.1.10-88a1d61d58~88~ubuntu20.04.1
; #@! TF.FileFunction,Plated,1,2,PTH
FMAT,2
INCH
T1C0.0157
T2C0.0402
T3C0.0591
T4C0.2362
%
G90
G05
T1
X5.2792Y-3.6846
X5.9012Y-4.0892
X6.0585Y-4.1258
X6.3407Y-3.2619
X7.1966Y-6.2856
X7.3006Y-4.8949
X8.117Y-4.927
X10.2579Y-4.0377
T2
X4.4Y-2.75
X4.4Y-3.45
X4.5Y-2.75
X4.5Y-3.45
X4.6Y-2.75
X4.6Y-3.45
X4.7Y-2.75
X4.7Y-3.45
X4.8Y-2.75
X4.8Y-3.45
X4.9Y-2.75
X4.9Y-3.45
X5.0Y-2.75
X5.0Y-3.45
X5.1Y-2.75
X5.1Y-3.45
X5.2Y-2.75
X5.2Y-3.45
X5.3Y-2.75
X5.3Y-3.45
X5.4Y-2.75
X5.4Y-3.45
X5.5Y-2.75
X5.5Y-3.45
X5.6Y-2.75
X5.6Y-3.45
X5.7Y-2.75
X5.7Y-3.45
X5.8Y-2.75
X5.8Y-3.45
X5.9Y-2.75
X5.9Y-3.45
X6.0Y-2.75
X6.0Y-3.45
X6.1Y-2.75
X6.1Y-3.45
X6.2Y-2.75
X6.2Y-3.45
X6.2909Y-3.0
X6.2909Y-3.1
X6.2909Y-3.2
X6.3Y-2.75
X6.3Y-3.45
T3
X5.1772Y-3.9567
X5.1772Y-4.7539
X5.1772Y-5.6693
X5.374Y-3.937
X5.374Y-4.7343
X5.374Y-5.6496
X5.9252Y-3.9567
X5.9252Y-4.7539
X5.9252Y-5.6693
X6.122Y-3.937
X6.122Y-4.7343
X6.122Y-5.6496
X6.6732Y-3.9567
X6.6732Y-4.7539
X6.6732Y-5.6693
X6.8701Y-3.937
X6.8701Y-4.7343
X6.8701Y-5.6496
X7.0472Y-6.6535
X7.2441Y-6.6339
X7.4213Y-3.9567
X7.4213Y-4.7539
X7.4213Y-5.6693
X7.6181Y-3.937
X7.6181Y-4.7343
X7.6181Y-5.6496
X7.7953Y-6.6535
X7.9921Y-6.6339
X8.1693Y-3.9567
X8.1693Y-4.7539
X8.1693Y-5.6693
X8.3661Y-3.937
X8.3661Y-4.7343
X8.3661Y-5.6496
X8.5433Y-6.6535
X8.7402Y-6.6339
X8.9173Y-3.9567
X8.9173Y-4.7539
X8.9173Y-5.6693
X9.1142Y-3.937
X9.1142Y-4.7343
X9.1142Y-5.6496
X9.2913Y-6.6535
X9.4882Y-6.6339
X9.6654Y-3.9567
X9.6654Y-4.7539
X9.6654Y-5.6693
X9.8622Y-3.937
X9.8622Y-4.7343
X9.8622Y-5.6496
X10.4134Y-3.9567
X10.4134Y-4.7539
X10.4134Y-5.6693
X10.6102Y-3.937
X10.6102Y-4.7343
X10.6102Y-5.6496
X11.1614Y-3.9567
X11.1614Y-4.7539
X11.1614Y-5.6693
X11.3583Y-3.937
X11.3583Y-4.7343
X11.3583Y-5.6496
X11.9094Y-3.9567
X11.9094Y-4.7539
X11.9094Y-5.6693
X12.1063Y-3.937
X12.1063Y-4.7343
X12.1063Y-5.6496
T4
X4.6063Y-3.9567
X4.6063Y-6.2992
X4.6063Y-6.6929
X6.2992Y-7.5984
X6.6929Y-2.6575
X6.6929Y-7.5984
X8.5075Y-2.2575
X8.8618Y-2.2575
X10.5906Y-2.6575
X10.5906Y-7.5984
X10.9843Y-2.6575
X10.9843Y-7.5984
X12.6772Y-3.563
X12.6772Y-3.9567
X12.6772Y-6.2992
X12.6772Y-6.6929
T0
M30
