%TF.GenerationSoftware,KiCad,Pcbnew,5.1.10-88a1d61d58~88~ubuntu20.04.1*%
%TF.CreationDate,2021-05-31T17:58:19-07:00*%
%TF.ProjectId,Stenokey,5374656e-6f6b-4657-992e-6b696361645f,1.0*%
%TF.SameCoordinates,Original*%
%TF.FileFunction,Copper,L1,Top*%
%TF.FilePolarity,Positive*%
%FSLAX46Y46*%
G04 Gerber Fmt 4.6, Leading zero omitted, Abs format (unit mm)*
G04 Created by KiCad (PCBNEW 5.1.10-88a1d61d58~88~ubuntu20.04.1) date 2021-05-31 17:58:19*
%MOMM*%
%LPD*%
G01*
G04 APERTURE LIST*
%TA.AperFunction,NonConductor*%
%ADD10C,0.300000*%
%TD*%
%TA.AperFunction,ComponentPad*%
%ADD11O,1.700000X1.700000*%
%TD*%
%TA.AperFunction,ComponentPad*%
%ADD12R,1.700000X1.700000*%
%TD*%
%TA.AperFunction,SMDPad,CuDef*%
%ADD13R,1.700000X3.500000*%
%TD*%
%TA.AperFunction,SMDPad,CuDef*%
%ADD14R,3.500000X1.700000*%
%TD*%
%TA.AperFunction,ComponentPad*%
%ADD15C,8.000000*%
%TD*%
%TA.AperFunction,ComponentPad*%
%ADD16R,3.000000X3.000000*%
%TD*%
%TA.AperFunction,ComponentPad*%
%ADD17C,3.000000*%
%TD*%
%TA.AperFunction,ViaPad*%
%ADD18C,0.600000*%
%TD*%
%TA.AperFunction,Conductor*%
%ADD19C,0.500000*%
%TD*%
G04 APERTURE END LIST*
D10*
X111214285Y-201250000D02*
X111071428Y-201178571D01*
X110857142Y-201178571D01*
X110642857Y-201250000D01*
X110500000Y-201392857D01*
X110428571Y-201535714D01*
X110357142Y-201821428D01*
X110357142Y-202035714D01*
X110428571Y-202321428D01*
X110500000Y-202464285D01*
X110642857Y-202607142D01*
X110857142Y-202678571D01*
X111000000Y-202678571D01*
X111214285Y-202607142D01*
X111285714Y-202535714D01*
X111285714Y-202035714D01*
X111000000Y-202035714D01*
X111714285Y-201178571D02*
X112571428Y-201178571D01*
X112142857Y-202678571D02*
X112142857Y-201178571D01*
X113785714Y-202678571D02*
X113071428Y-202678571D01*
X113071428Y-201178571D01*
D11*
%TO.P,U1,1*%
%TO.N,/COL0*%
X111760000Y-87630000D03*
%TO.P,U1,2*%
%TO.N,/COL1*%
X114300000Y-87630000D03*
D12*
%TO.P,U1,3*%
%TO.N,Net-(U1-Pad3)*%
X116840000Y-87630000D03*
D11*
%TO.P,U1,4*%
%TO.N,/COL2*%
X119380000Y-87630000D03*
%TO.P,U1,5*%
%TO.N,/COL3*%
X121920000Y-87630000D03*
%TO.P,U1,6*%
%TO.N,/COL4*%
X124460000Y-87630000D03*
%TO.P,U1,7*%
%TO.N,/COL5*%
X127000000Y-87630000D03*
D12*
%TO.P,U1,8*%
%TO.N,Net-(U1-Pad8)*%
X129540000Y-87630000D03*
D11*
%TO.P,U1,9*%
%TO.N,/COL6*%
X132080000Y-87630000D03*
%TO.P,U1,10*%
%TO.N,/COL7*%
X134620000Y-87630000D03*
%TO.P,U1,11*%
%TO.N,/COL8*%
X137160000Y-87630000D03*
%TO.P,U1,12*%
%TO.N,/COL9*%
X139700000Y-87630000D03*
D12*
%TO.P,U1,13*%
%TO.N,Net-(U1-Pad13)*%
X142240000Y-87630000D03*
D11*
%TO.P,U1,14*%
%TO.N,/ROW0*%
X144780000Y-87630000D03*
%TO.P,U1,15*%
%TO.N,/ROW1*%
X147320000Y-87630000D03*
%TO.P,U1,16*%
%TO.N,/ROW2*%
X149860000Y-87630000D03*
%TO.P,U1,17*%
%TO.N,/ROW3*%
X152400000Y-87630000D03*
D12*
%TO.P,U1,18*%
%TO.N,Net-(U1-Pad18)*%
X154940000Y-87630000D03*
D11*
%TO.P,U1,19*%
%TO.N,Net-(U1-Pad19)*%
X157480000Y-87630000D03*
%TO.P,U1,20*%
%TO.N,Net-(U1-Pad20)*%
X160020000Y-87630000D03*
%TO.P,U1,21*%
%TO.N,Net-(U1-Pad21)*%
X160020000Y-69850000D03*
%TO.P,U1,22*%
%TO.N,Net-(U1-Pad22)*%
X157480000Y-69850000D03*
D12*
%TO.P,U1,23*%
%TO.N,Net-(U1-Pad23)*%
X154940000Y-69850000D03*
D11*
%TO.P,U1,24*%
%TO.N,Net-(U1-Pad24)*%
X152400000Y-69850000D03*
%TO.P,U1,25*%
%TO.N,Net-(U1-Pad25)*%
X149860000Y-69850000D03*
%TO.P,U1,26*%
%TO.N,Net-(U1-Pad26)*%
X147320000Y-69850000D03*
%TO.P,U1,27*%
%TO.N,Net-(U1-Pad27)*%
X144780000Y-69850000D03*
D12*
%TO.P,U1,28*%
%TO.N,Net-(U1-Pad28)*%
X142240000Y-69850000D03*
D11*
%TO.P,U1,29*%
%TO.N,Net-(U1-Pad29)*%
X139700000Y-69850000D03*
%TO.P,U1,30*%
%TO.N,Net-(U1-Pad30)*%
X137160000Y-69850000D03*
%TO.P,U1,31*%
%TO.N,Net-(U1-Pad31)*%
X134620000Y-69850000D03*
%TO.P,U1,32*%
%TO.N,Net-(U1-Pad32)*%
X132080000Y-69850000D03*
D12*
%TO.P,U1,33*%
%TO.N,Net-(U1-Pad33)*%
X129540000Y-69850000D03*
D11*
%TO.P,U1,34*%
%TO.N,Net-(U1-Pad34)*%
X127000000Y-69850000D03*
%TO.P,U1,35*%
%TO.N,Net-(U1-Pad35)*%
X124460000Y-69850000D03*
%TO.P,U1,36*%
%TO.N,Net-(U1-Pad36)*%
X121920000Y-69850000D03*
%TO.P,U1,37*%
%TO.N,Net-(U1-Pad37)*%
X119380000Y-69850000D03*
D12*
%TO.P,U1,38*%
%TO.N,Net-(U1-Pad38)*%
X116840000Y-69850000D03*
D11*
%TO.P,U1,39*%
%TO.N,Net-(U1-Pad39)*%
X114300000Y-69850000D03*
%TO.P,U1,40*%
%TO.N,Net-(U1-Pad40)*%
X111760000Y-69850000D03*
D13*
%TO.P,U1,1*%
%TO.N,/COL0*%
X111760000Y-88530000D03*
%TO.P,U1,2*%
%TO.N,/COL1*%
X114300000Y-88530000D03*
%TO.P,U1,3*%
%TO.N,Net-(U1-Pad3)*%
X116840000Y-88530000D03*
%TO.P,U1,4*%
%TO.N,/COL2*%
X119380000Y-88530000D03*
%TO.P,U1,5*%
%TO.N,/COL3*%
X121920000Y-88530000D03*
%TO.P,U1,6*%
%TO.N,/COL4*%
X124460000Y-88530000D03*
%TO.P,U1,7*%
%TO.N,/COL5*%
X127000000Y-88530000D03*
%TO.P,U1,8*%
%TO.N,Net-(U1-Pad8)*%
X129540000Y-88530000D03*
%TO.P,U1,9*%
%TO.N,/COL6*%
X132080000Y-88530000D03*
%TO.P,U1,10*%
%TO.N,/COL7*%
X134620000Y-88530000D03*
%TO.P,U1,11*%
%TO.N,/COL8*%
X137160000Y-88530000D03*
%TO.P,U1,12*%
%TO.N,/COL9*%
X139700000Y-88530000D03*
%TO.P,U1,13*%
%TO.N,Net-(U1-Pad13)*%
X142240000Y-88530000D03*
%TO.P,U1,14*%
%TO.N,/ROW0*%
X144780000Y-88530000D03*
%TO.P,U1,15*%
%TO.N,/ROW1*%
X147320000Y-88530000D03*
%TO.P,U1,16*%
%TO.N,/ROW2*%
X149860000Y-88530000D03*
%TO.P,U1,17*%
%TO.N,/ROW3*%
X152400000Y-88530000D03*
%TO.P,U1,18*%
%TO.N,Net-(U1-Pad18)*%
X154940000Y-88530000D03*
%TO.P,U1,19*%
%TO.N,Net-(U1-Pad19)*%
X157480000Y-88530000D03*
%TO.P,U1,20*%
%TO.N,Net-(U1-Pad20)*%
X160020000Y-88530000D03*
%TO.P,U1,40*%
%TO.N,Net-(U1-Pad40)*%
X111760000Y-68950000D03*
%TO.P,U1,39*%
%TO.N,Net-(U1-Pad39)*%
X114300000Y-68950000D03*
%TO.P,U1,38*%
%TO.N,Net-(U1-Pad38)*%
X116840000Y-68950000D03*
%TO.P,U1,37*%
%TO.N,Net-(U1-Pad37)*%
X119380000Y-68950000D03*
%TO.P,U1,36*%
%TO.N,Net-(U1-Pad36)*%
X121920000Y-68950000D03*
%TO.P,U1,35*%
%TO.N,Net-(U1-Pad35)*%
X124460000Y-68950000D03*
%TO.P,U1,34*%
%TO.N,Net-(U1-Pad34)*%
X127000000Y-68950000D03*
%TO.P,U1,33*%
%TO.N,Net-(U1-Pad33)*%
X129540000Y-68950000D03*
%TO.P,U1,32*%
%TO.N,Net-(U1-Pad32)*%
X132080000Y-68950000D03*
%TO.P,U1,31*%
%TO.N,Net-(U1-Pad31)*%
X134620000Y-68950000D03*
%TO.P,U1,30*%
%TO.N,Net-(U1-Pad30)*%
X137160000Y-68950000D03*
%TO.P,U1,29*%
%TO.N,Net-(U1-Pad29)*%
X139700000Y-68950000D03*
%TO.P,U1,28*%
%TO.N,Net-(U1-Pad28)*%
X142240000Y-68950000D03*
%TO.P,U1,27*%
%TO.N,Net-(U1-Pad27)*%
X144780000Y-68950000D03*
%TO.P,U1,26*%
%TO.N,Net-(U1-Pad26)*%
X147320000Y-68950000D03*
%TO.P,U1,25*%
%TO.N,Net-(U1-Pad25)*%
X149860000Y-68950000D03*
%TO.P,U1,24*%
%TO.N,Net-(U1-Pad24)*%
X152400000Y-68950000D03*
%TO.P,U1,23*%
%TO.N,Net-(U1-Pad23)*%
X154940000Y-68950000D03*
%TO.P,U1,22*%
%TO.N,Net-(U1-Pad22)*%
X157480000Y-68950000D03*
%TO.P,U1,21*%
%TO.N,Net-(U1-Pad21)*%
X160020000Y-68950000D03*
D14*
%TO.P,U1,41*%
%TO.N,Net-(U1-Pad41)*%
X160690000Y-81280000D03*
D11*
X159790000Y-81280000D03*
D14*
%TO.P,U1,42*%
%TO.N,Net-(U1-Pad42)*%
X160690000Y-78740000D03*
D12*
X159790000Y-78740000D03*
D14*
%TO.P,U1,43*%
%TO.N,Net-(U1-Pad43)*%
X160690000Y-76200000D03*
D11*
X159790000Y-76200000D03*
%TD*%
D15*
%TO.P,Z4,1*%
%TO.N,Net-(Z4-Pad1)*%
X279000000Y-67500000D03*
%TD*%
%TO.P,Z5,1*%
%TO.N,Net-(Z5-Pad1)*%
X322000000Y-90500000D03*
%TD*%
D16*
%TO.P,SW1,1*%
%TO.N,/ROW0*%
X131500000Y-100500000D03*
D17*
%TO.P,SW1,2*%
%TO.N,/COL0*%
X136500000Y-100000000D03*
%TD*%
D16*
%TO.P,SW2,1*%
%TO.N,/ROW1*%
X150500000Y-100500000D03*
D17*
%TO.P,SW2,2*%
%TO.N,/COL0*%
X155500000Y-100000000D03*
%TD*%
D16*
%TO.P,SW3,1*%
%TO.N,/ROW2*%
X169500000Y-100500000D03*
D17*
%TO.P,SW3,2*%
%TO.N,/COL0*%
X174500000Y-100000000D03*
%TD*%
D16*
%TO.P,SW4,1*%
%TO.N,/ROW3*%
X188500000Y-100500000D03*
D17*
%TO.P,SW4,2*%
%TO.N,/COL0*%
X193500000Y-100000000D03*
%TD*%
D16*
%TO.P,SW5,1*%
%TO.N,/ROW0*%
X207500000Y-100500000D03*
D17*
%TO.P,SW5,2*%
%TO.N,/COL1*%
X212500000Y-100000000D03*
%TD*%
D16*
%TO.P,SW6,1*%
%TO.N,/ROW1*%
X226500000Y-100500000D03*
D17*
%TO.P,SW6,2*%
%TO.N,/COL1*%
X231500000Y-100000000D03*
%TD*%
D16*
%TO.P,SW7,1*%
%TO.N,/ROW2*%
X245500000Y-100500000D03*
D17*
%TO.P,SW7,2*%
%TO.N,/COL1*%
X250500000Y-100000000D03*
%TD*%
D16*
%TO.P,SW8,1*%
%TO.N,/ROW3*%
X264500000Y-100500000D03*
D17*
%TO.P,SW8,2*%
%TO.N,/COL1*%
X269500000Y-100000000D03*
%TD*%
D16*
%TO.P,SW9,1*%
%TO.N,/ROW0*%
X283500000Y-100500000D03*
D17*
%TO.P,SW9,2*%
%TO.N,/COL2*%
X288500000Y-100000000D03*
%TD*%
D16*
%TO.P,SW10,1*%
%TO.N,/ROW1*%
X302500000Y-100500000D03*
D17*
%TO.P,SW10,2*%
%TO.N,/COL2*%
X307500000Y-100000000D03*
%TD*%
D16*
%TO.P,SW11,1*%
%TO.N,/ROW2*%
X131500000Y-120750000D03*
D17*
%TO.P,SW11,2*%
%TO.N,/COL2*%
X136500000Y-120250000D03*
%TD*%
D16*
%TO.P,SW12,1*%
%TO.N,/ROW0*%
X150500000Y-120750000D03*
D17*
%TO.P,SW12,2*%
%TO.N,/COL3*%
X155500000Y-120250000D03*
%TD*%
D16*
%TO.P,SW13,1*%
%TO.N,/ROW1*%
X169500000Y-120750000D03*
D17*
%TO.P,SW13,2*%
%TO.N,/COL3*%
X174500000Y-120250000D03*
%TD*%
D16*
%TO.P,SW14,1*%
%TO.N,/ROW2*%
X188500000Y-120750000D03*
D17*
%TO.P,SW14,2*%
%TO.N,/COL3*%
X193500000Y-120250000D03*
%TD*%
D16*
%TO.P,SW15,1*%
%TO.N,/ROW0*%
X207500000Y-120750000D03*
D17*
%TO.P,SW15,2*%
%TO.N,/COL4*%
X212500000Y-120250000D03*
%TD*%
D16*
%TO.P,SW16,1*%
%TO.N,/ROW1*%
X226500000Y-120750000D03*
D17*
%TO.P,SW16,2*%
%TO.N,/COL4*%
X231500000Y-120250000D03*
%TD*%
D16*
%TO.P,SW17,1*%
%TO.N,/ROW2*%
X245500000Y-120750000D03*
D17*
%TO.P,SW17,2*%
%TO.N,/COL4*%
X250500000Y-120250000D03*
%TD*%
D16*
%TO.P,SW18,1*%
%TO.N,/ROW0*%
X264500000Y-120750000D03*
D17*
%TO.P,SW18,2*%
%TO.N,/COL5*%
X269500000Y-120250000D03*
%TD*%
D16*
%TO.P,SW19,1*%
%TO.N,/ROW1*%
X283500000Y-120750000D03*
D17*
%TO.P,SW19,2*%
%TO.N,/COL5*%
X288500000Y-120250000D03*
%TD*%
D16*
%TO.P,SW20,1*%
%TO.N,/ROW2*%
X302500000Y-120750000D03*
D17*
%TO.P,SW20,2*%
%TO.N,/COL5*%
X307500000Y-120250000D03*
%TD*%
D16*
%TO.P,SW21,1*%
%TO.N,/ROW3*%
X131500000Y-144000000D03*
D17*
%TO.P,SW21,2*%
%TO.N,/COL5*%
X136500000Y-143500000D03*
%TD*%
D16*
%TO.P,SW22,1*%
%TO.N,/ROW0*%
X150500000Y-144000000D03*
D17*
%TO.P,SW22,2*%
%TO.N,/COL6*%
X155500000Y-143500000D03*
%TD*%
D16*
%TO.P,SW23,1*%
%TO.N,/ROW1*%
X169500000Y-144000000D03*
D17*
%TO.P,SW23,2*%
%TO.N,/COL6*%
X174500000Y-143500000D03*
%TD*%
D16*
%TO.P,SW24,1*%
%TO.N,/ROW2*%
X188500000Y-144000000D03*
D17*
%TO.P,SW24,2*%
%TO.N,/COL6*%
X193500000Y-143500000D03*
%TD*%
D16*
%TO.P,SW25,1*%
%TO.N,/ROW3*%
X207500000Y-144000000D03*
D17*
%TO.P,SW25,2*%
%TO.N,/COL6*%
X212500000Y-143500000D03*
%TD*%
D16*
%TO.P,SW26,1*%
%TO.N,/ROW0*%
X226500000Y-144000000D03*
D17*
%TO.P,SW26,2*%
%TO.N,/COL7*%
X231500000Y-143500000D03*
%TD*%
D16*
%TO.P,SW27,1*%
%TO.N,/ROW1*%
X245500000Y-144000000D03*
D17*
%TO.P,SW27,2*%
%TO.N,/COL7*%
X250500000Y-143500000D03*
%TD*%
D16*
%TO.P,SW28,1*%
%TO.N,/ROW2*%
X264500000Y-144000000D03*
D17*
%TO.P,SW28,2*%
%TO.N,/COL7*%
X269500000Y-143500000D03*
%TD*%
D16*
%TO.P,SW29,1*%
%TO.N,/ROW0*%
X283500000Y-144000000D03*
D17*
%TO.P,SW29,2*%
%TO.N,/COL8*%
X288500000Y-143500000D03*
%TD*%
D16*
%TO.P,SW30,1*%
%TO.N,/ROW1*%
X302500000Y-144000000D03*
D17*
%TO.P,SW30,2*%
%TO.N,/COL8*%
X307500000Y-143500000D03*
%TD*%
D16*
%TO.P,SW31,1*%
%TO.N,/ROW2*%
X179000000Y-169000000D03*
D17*
%TO.P,SW31,2*%
%TO.N,/COL8*%
X184000000Y-168500000D03*
%TD*%
D16*
%TO.P,SW32,1*%
%TO.N,/ROW0*%
X198000000Y-169000000D03*
D17*
%TO.P,SW32,2*%
%TO.N,/COL9*%
X203000000Y-168500000D03*
%TD*%
D16*
%TO.P,SW33,1*%
%TO.N,/ROW1*%
X217000000Y-169000000D03*
D17*
%TO.P,SW33,2*%
%TO.N,/COL9*%
X222000000Y-168500000D03*
%TD*%
D16*
%TO.P,SW34,1*%
%TO.N,/ROW2*%
X236000000Y-169000000D03*
D17*
%TO.P,SW34,2*%
%TO.N,/COL9*%
X241000000Y-168500000D03*
%TD*%
D15*
%TO.P,Z2,1*%
%TO.N,Net-(Z2-Pad1)*%
X170000000Y-67500000D03*
%TD*%
%TO.P,Z3,1*%
%TO.N,Net-(Z3-Pad1)*%
X269000000Y-67500000D03*
%TD*%
%TO.P,Z6,1*%
%TO.N,Net-(Z6-Pad1)*%
X322000000Y-100500000D03*
%TD*%
%TO.P,Z7,1*%
%TO.N,Net-(Z7-Pad1)*%
X322000000Y-160000000D03*
%TD*%
%TO.P,Z8,1*%
%TO.N,Net-(Z8-Pad1)*%
X322000000Y-170000000D03*
%TD*%
%TO.P,Z9,1*%
%TO.N,Net-(Z9-Pad1)*%
X279000000Y-193000000D03*
%TD*%
%TO.P,Z10,1*%
%TO.N,Net-(Z10-Pad1)*%
X269000000Y-193000000D03*
%TD*%
%TO.P,Z11,1*%
%TO.N,Net-(Z11-Pad1)*%
X170000000Y-193000000D03*
%TD*%
%TO.P,Z12,1*%
%TO.N,Net-(Z12-Pad1)*%
X160000000Y-193000000D03*
%TD*%
%TO.P,Z13,1*%
%TO.N,Net-(Z13-Pad1)*%
X117000000Y-170000000D03*
%TD*%
%TO.P,Z14,1*%
%TO.N,Net-(Z14-Pad1)*%
X117000000Y-160000000D03*
%TD*%
%TO.P,Z15,1*%
%TO.N,Net-(Z15-Pad1)*%
X117000000Y-100500000D03*
%TD*%
%TO.P,Z1,1*%
%TO.N,Net-(Z1-Pad1)*%
X216090000Y-57340000D03*
%TD*%
%TO.P,Z16,1*%
%TO.N,Net-(Z16-Pad1)*%
X225090000Y-57340000D03*
%TD*%
D18*
%TO.N,/COL0*%
X161053000Y-82853200D03*
%TO.N,/COL1*%
X260551500Y-102558200D03*
%TO.N,/COL7*%
X134092700Y-93588700D03*
%TO.N,/ROW0*%
X149889700Y-103866700D03*
%TO.N,/ROW1*%
X185436100Y-124329900D03*
X153885700Y-104796200D03*
%TO.N,/ROW2*%
X182792400Y-159654100D03*
%TO.N,/ROW3*%
X206171500Y-125145500D03*
%TD*%
D19*
%TO.N,/COL0*%
X174500000Y-100000000D02*
X176000400Y-98499600D01*
X176000400Y-98499600D02*
X191999600Y-98499600D01*
X191999600Y-98499600D02*
X193500000Y-100000000D01*
X155500000Y-100000000D02*
X155500000Y-104404900D01*
X155500000Y-104404900D02*
X154304800Y-105600100D01*
X154304800Y-105600100D02*
X132887800Y-105600100D01*
X132887800Y-105600100D02*
X129444000Y-102156300D01*
X129444000Y-102156300D02*
X129444000Y-98797300D01*
X129444000Y-98797300D02*
X129759700Y-98481600D01*
X129759700Y-98481600D02*
X134981600Y-98481600D01*
X134981600Y-98481600D02*
X136500000Y-100000000D01*
X161053000Y-82853200D02*
X115186500Y-82853200D01*
X115186500Y-82853200D02*
X111760000Y-86279700D01*
X111760000Y-87630000D02*
X111760000Y-86279700D01*
%TO.N,/COL1*%
X260551500Y-102558200D02*
X261244000Y-103250700D01*
X261244000Y-103250700D02*
X266647200Y-103250700D01*
X266647200Y-103250700D02*
X269500000Y-100397900D01*
X269500000Y-100397900D02*
X269500000Y-100000000D01*
X212500000Y-100000000D02*
X196528800Y-84028800D01*
X196528800Y-84028800D02*
X116550900Y-84028800D01*
X116550900Y-84028800D02*
X114300000Y-86279700D01*
X250500000Y-100000000D02*
X248999600Y-98499600D01*
X248999600Y-98499600D02*
X233000400Y-98499600D01*
X233000400Y-98499600D02*
X231500000Y-100000000D01*
X231500000Y-100000000D02*
X229999600Y-98499600D01*
X229999600Y-98499600D02*
X214000400Y-98499600D01*
X214000400Y-98499600D02*
X212500000Y-100000000D01*
X114300000Y-87630000D02*
X114300000Y-86279700D01*
%TO.N,/COL2*%
X119380000Y-86279700D02*
X120880600Y-84779100D01*
X120880600Y-84779100D02*
X195513700Y-84779100D01*
X195513700Y-84779100D02*
X209500400Y-98765800D01*
X209500400Y-98765800D02*
X209500400Y-99848500D01*
X209500400Y-99848500D02*
X212938100Y-103286200D01*
X212938100Y-103286200D02*
X251165300Y-103286200D01*
X251165300Y-103286200D02*
X257508800Y-96942700D01*
X257508800Y-96942700D02*
X285442700Y-96942700D01*
X285442700Y-96942700D02*
X288500000Y-100000000D01*
X119380000Y-87630000D02*
X119380000Y-91205200D01*
X119380000Y-91205200D02*
X123268000Y-95093200D01*
X123268000Y-95093200D02*
X123268000Y-107018000D01*
X123268000Y-107018000D02*
X136500000Y-120250000D01*
X119380000Y-86954800D02*
X119380000Y-87630000D01*
X119380000Y-86954800D02*
X119380000Y-86279700D01*
X307500000Y-100000000D02*
X304999600Y-102500400D01*
X304999600Y-102500400D02*
X291000400Y-102500400D01*
X291000400Y-102500400D02*
X288500000Y-100000000D01*
%TO.N,/COL3*%
X193500000Y-120250000D02*
X191999600Y-118749600D01*
X191999600Y-118749600D02*
X176000400Y-118749600D01*
X176000400Y-118749600D02*
X174500000Y-120250000D01*
X155500000Y-120250000D02*
X157000400Y-118749600D01*
X157000400Y-118749600D02*
X172999600Y-118749600D01*
X172999600Y-118749600D02*
X174500000Y-120250000D01*
X121920000Y-86279700D02*
X122670300Y-85529400D01*
X122670300Y-85529400D02*
X186669100Y-85529400D01*
X186669100Y-85529400D02*
X205176200Y-104036500D01*
X205176200Y-104036500D02*
X251476300Y-104036500D01*
X251476300Y-104036500D02*
X257819800Y-97693000D01*
X257819800Y-97693000D02*
X270120700Y-97693000D01*
X270120700Y-97693000D02*
X271533200Y-99105500D01*
X271533200Y-99105500D02*
X271533200Y-100881900D01*
X271533200Y-100881900D02*
X259013200Y-113401900D01*
X259013200Y-113401900D02*
X154112000Y-113401900D01*
X154112000Y-113401900D02*
X148466900Y-119047000D01*
X148466900Y-119047000D02*
X148466900Y-122491700D01*
X148466900Y-122491700D02*
X148725600Y-122750400D01*
X148725600Y-122750400D02*
X152999600Y-122750400D01*
X152999600Y-122750400D02*
X155500000Y-120250000D01*
X121920000Y-87630000D02*
X121920000Y-86279700D01*
%TO.N,/COL4*%
X124460000Y-86279700D02*
X185226100Y-86279700D01*
X185226100Y-86279700D02*
X203733200Y-104786800D01*
X203733200Y-104786800D02*
X251787200Y-104786800D01*
X251787200Y-104786800D02*
X258080900Y-98493100D01*
X258080900Y-98493100D02*
X266214900Y-98493100D01*
X266214900Y-98493100D02*
X266559000Y-98837200D01*
X266559000Y-98837200D02*
X266559000Y-102236100D01*
X266559000Y-102236100D02*
X266294800Y-102500300D01*
X266294800Y-102500300D02*
X262792800Y-102500300D01*
X262792800Y-102500300D02*
X262011000Y-101718500D01*
X262011000Y-101718500D02*
X260244600Y-101718500D01*
X260244600Y-101718500D02*
X249912100Y-112051000D01*
X249912100Y-112051000D02*
X154401700Y-112051000D01*
X154401700Y-112051000D02*
X147716600Y-118736100D01*
X147716600Y-118736100D02*
X147716600Y-122802600D01*
X147716600Y-122802600D02*
X148428300Y-123514300D01*
X148428300Y-123514300D02*
X209533700Y-123514300D01*
X209533700Y-123514300D02*
X212500000Y-120548000D01*
X212500000Y-120548000D02*
X212500000Y-120250000D01*
X250500000Y-120250000D02*
X248999600Y-118749600D01*
X248999600Y-118749600D02*
X233000400Y-118749600D01*
X233000400Y-118749600D02*
X231500000Y-120250000D01*
X212500000Y-120250000D02*
X214000400Y-118749600D01*
X214000400Y-118749600D02*
X229999600Y-118749600D01*
X229999600Y-118749600D02*
X231500000Y-120250000D01*
X124460000Y-87630000D02*
X124460000Y-86279700D01*
%TO.N,/COL5*%
X127000000Y-90780300D02*
X125652600Y-92127700D01*
X125652600Y-92127700D02*
X125652600Y-106058300D01*
X125652600Y-106058300D02*
X138524500Y-118930200D01*
X138524500Y-118930200D02*
X138524500Y-121111700D01*
X138524500Y-121111700D02*
X137385800Y-122250400D01*
X137385800Y-122250400D02*
X136500000Y-122250400D01*
X288500000Y-120250000D02*
X285999700Y-122750300D01*
X285999700Y-122750300D02*
X272000300Y-122750300D01*
X272000300Y-122750300D02*
X269500000Y-120250000D01*
X307500000Y-120250000D02*
X305249300Y-117999300D01*
X305249300Y-117999300D02*
X290750700Y-117999300D01*
X290750700Y-117999300D02*
X288500000Y-120250000D01*
X307500000Y-120250000D02*
X309515500Y-122265500D01*
X309515500Y-122265500D02*
X309515500Y-144349400D01*
X309515500Y-144349400D02*
X280966100Y-172898800D01*
X280966100Y-172898800D02*
X155585500Y-172898800D01*
X155585500Y-172898800D02*
X128736700Y-146050000D01*
X128736700Y-146050000D02*
X128736700Y-119721100D01*
X128736700Y-119721100D02*
X129708200Y-118749600D01*
X129708200Y-118749600D02*
X133225700Y-118749600D01*
X133225700Y-118749600D02*
X134250700Y-119774600D01*
X134250700Y-119774600D02*
X134250700Y-120857800D01*
X134250700Y-120857800D02*
X135643300Y-122250400D01*
X135643300Y-122250400D02*
X136500000Y-122250400D01*
X136500000Y-143500000D02*
X136500000Y-122250400D01*
X127000000Y-87630000D02*
X127000000Y-90780300D01*
%TO.N,/COL6*%
X132080000Y-90780300D02*
X126403000Y-96457300D01*
X126403000Y-96457300D02*
X126403000Y-105747500D01*
X126403000Y-105747500D02*
X141043200Y-120387700D01*
X141043200Y-120387700D02*
X141043200Y-139398300D01*
X141043200Y-139398300D02*
X148461400Y-146816500D01*
X148461400Y-146816500D02*
X152545300Y-146816500D01*
X152545300Y-146816500D02*
X155500000Y-143861800D01*
X155500000Y-143861800D02*
X155500000Y-143500000D01*
X155500000Y-143500000D02*
X157000300Y-141999700D01*
X157000300Y-141999700D02*
X172999800Y-141999700D01*
X172999800Y-141999700D02*
X172999800Y-141999800D01*
X172999800Y-141999800D02*
X174500000Y-143500000D01*
X193500000Y-143500000D02*
X191233100Y-141233100D01*
X191233100Y-141233100D02*
X176766900Y-141233100D01*
X176766900Y-141233100D02*
X174500000Y-143500000D01*
X132080000Y-87630000D02*
X132080000Y-90780300D01*
X212500000Y-143500000D02*
X210999600Y-141999600D01*
X210999600Y-141999600D02*
X195000400Y-141999600D01*
X195000400Y-141999600D02*
X193500000Y-143500000D01*
%TO.N,/COL7*%
X250500000Y-143500000D02*
X253000400Y-146000400D01*
X253000400Y-146000400D02*
X266999600Y-146000400D01*
X266999600Y-146000400D02*
X269500000Y-143500000D01*
X231500000Y-143500000D02*
X233000400Y-141999600D01*
X233000400Y-141999600D02*
X248999600Y-141999600D01*
X248999600Y-141999600D02*
X250500000Y-143500000D01*
X134092700Y-93588700D02*
X133525900Y-93588700D01*
X133525900Y-93588700D02*
X128689900Y-98424700D01*
X128689900Y-98424700D02*
X128689900Y-102463300D01*
X128689900Y-102463300D02*
X145465700Y-119239100D01*
X145465700Y-119239100D02*
X145465700Y-123735300D01*
X145465700Y-123735300D02*
X149416800Y-127686400D01*
X149416800Y-127686400D02*
X215686400Y-127686400D01*
X215686400Y-127686400D02*
X231500000Y-143500000D01*
%TO.N,/COL8*%
X137160000Y-90780300D02*
X134190500Y-90780300D01*
X134190500Y-90780300D02*
X127153400Y-97817400D01*
X127153400Y-97817400D02*
X127153400Y-105436700D01*
X127153400Y-105436700D02*
X143106200Y-121389500D01*
X143106200Y-121389500D02*
X143106200Y-140383700D01*
X143106200Y-140383700D02*
X148722900Y-146000400D01*
X148722900Y-146000400D02*
X152220400Y-146000400D01*
X152220400Y-146000400D02*
X153250600Y-144970200D01*
X153250600Y-144970200D02*
X153250600Y-142810800D01*
X153250600Y-142810800D02*
X155602400Y-140459000D01*
X155602400Y-140459000D02*
X212351400Y-140459000D01*
X212351400Y-140459000D02*
X214553300Y-142660900D01*
X214553300Y-142660900D02*
X214553300Y-144279100D01*
X214553300Y-144279100D02*
X190332400Y-168500000D01*
X190332400Y-168500000D02*
X184000000Y-168500000D01*
X137160000Y-87630000D02*
X137160000Y-90780300D01*
X304500400Y-143500000D02*
X304500400Y-145724900D01*
X304500400Y-145724900D02*
X278077000Y-172148300D01*
X278077000Y-172148300D02*
X178414500Y-172148300D01*
X178414500Y-172148300D02*
X176999600Y-170733400D01*
X176999600Y-170733400D02*
X176999600Y-167199300D01*
X176999600Y-167199300D02*
X177199300Y-166999600D01*
X177199300Y-166999600D02*
X182499600Y-166999600D01*
X182499600Y-166999600D02*
X184000000Y-168500000D01*
X304500400Y-143500000D02*
X304500400Y-142255800D01*
X304500400Y-142255800D02*
X304213300Y-141968700D01*
X304213300Y-141968700D02*
X290031300Y-141968700D01*
X290031300Y-141968700D02*
X288500000Y-143500000D01*
X307500000Y-143500000D02*
X304500400Y-143500000D01*
%TO.N,/COL9*%
X228544700Y-160392800D02*
X222000000Y-166937500D01*
X139700000Y-90780300D02*
X138834300Y-91646000D01*
X138834300Y-91646000D02*
X134386100Y-91646000D01*
X134386100Y-91646000D02*
X127903800Y-98128300D01*
X127903800Y-98128300D02*
X127903800Y-102738500D01*
X127903800Y-102738500D02*
X144066100Y-118900800D01*
X144066100Y-118900800D02*
X144066100Y-123431900D01*
X144066100Y-123431900D02*
X159074300Y-138440100D01*
X159074300Y-138440100D02*
X224683000Y-138440100D01*
X224683000Y-138440100D02*
X228544700Y-142301800D01*
X228544700Y-142301800D02*
X228544700Y-160392800D01*
X241000000Y-168500000D02*
X232892800Y-160392800D01*
X232892800Y-160392800D02*
X228544700Y-160392800D01*
X139700000Y-87630000D02*
X139700000Y-90780300D01*
X222000000Y-166937500D02*
X222000000Y-168500000D01*
X203000000Y-168500000D02*
X204562500Y-166937500D01*
X204562500Y-166937500D02*
X222000000Y-166937500D01*
%TO.N,/ROW0*%
X283500000Y-100500000D02*
X283500000Y-102500300D01*
X283500000Y-102500300D02*
X283250000Y-102500300D01*
X283250000Y-102500300D02*
X265500200Y-120250100D01*
X265500200Y-120250100D02*
X265500200Y-120750000D01*
X265500200Y-120750000D02*
X283500000Y-138749800D01*
X283500000Y-138749800D02*
X283500000Y-144000000D01*
X198000000Y-169000000D02*
X198000000Y-166999700D01*
X215303700Y-144000000D02*
X215303700Y-142256000D01*
X215303700Y-142256000D02*
X212755000Y-139707300D01*
X212755000Y-139707300D02*
X155292800Y-139707300D01*
X155292800Y-139707300D02*
X152500300Y-142499800D01*
X152500300Y-142499800D02*
X152500300Y-144000000D01*
X198000000Y-166999700D02*
X215303700Y-149696000D01*
X215303700Y-149696000D02*
X215303700Y-144000000D01*
X215303700Y-144000000D02*
X224499700Y-144000000D01*
X226500000Y-144000000D02*
X224499700Y-144000000D01*
X150500000Y-144000000D02*
X152500300Y-144000000D01*
X207500000Y-120750000D02*
X205499700Y-120750000D01*
X264500000Y-120750000D02*
X265500200Y-120750000D01*
X205499700Y-120750000D02*
X202748900Y-117999200D01*
X202748900Y-117999200D02*
X154876000Y-117999200D01*
X154876000Y-117999200D02*
X152500300Y-120374900D01*
X152500300Y-120374900D02*
X152500300Y-120750000D01*
X150500000Y-120750000D02*
X152500300Y-120750000D01*
X207500000Y-120750000D02*
X209500300Y-120750000D01*
X262499700Y-120750000D02*
X258944600Y-117194900D01*
X258944600Y-117194900D02*
X211555200Y-117194900D01*
X211555200Y-117194900D02*
X209500300Y-119249800D01*
X209500300Y-119249800D02*
X209500300Y-120750000D01*
X264500000Y-120750000D02*
X262499700Y-120750000D01*
X143215100Y-97192100D02*
X144780000Y-95627200D01*
X144780000Y-95627200D02*
X144780000Y-87630000D01*
X149889700Y-103866700D02*
X143215100Y-97192100D01*
X143215100Y-97192100D02*
X138376600Y-102030600D01*
X138376600Y-102030600D02*
X135030900Y-102030600D01*
X135030900Y-102030600D02*
X133500300Y-100500000D01*
X131500000Y-100500000D02*
X133500300Y-100500000D01*
%TO.N,/ROW1*%
X287062100Y-145212000D02*
X286492600Y-144642600D01*
X286492600Y-144642600D02*
X286492600Y-142506600D01*
X286492600Y-142506600D02*
X295375500Y-133623700D01*
X295375500Y-133623700D02*
X295375500Y-133093000D01*
X295375500Y-133093000D02*
X304500400Y-123968100D01*
X304500400Y-123968100D02*
X304500400Y-119015700D01*
X304500400Y-119015700D02*
X304234300Y-118749600D01*
X304234300Y-118749600D02*
X297551800Y-118749600D01*
X297551800Y-118749600D02*
X292739500Y-123561900D01*
X292739500Y-123561900D02*
X269907100Y-123561900D01*
X269907100Y-123561900D02*
X267493900Y-121148700D01*
X267493900Y-121148700D02*
X267493900Y-119353800D01*
X267493900Y-119353800D02*
X268640100Y-118207600D01*
X268640100Y-118207600D02*
X285500300Y-118207600D01*
X300499700Y-144000000D02*
X298952500Y-145547200D01*
X298952500Y-145547200D02*
X287397200Y-145547200D01*
X287397200Y-145547200D02*
X287062100Y-145212000D01*
X250267100Y-146766800D02*
X285507300Y-146766800D01*
X285507300Y-146766800D02*
X287062100Y-145212000D01*
X217000000Y-169000000D02*
X219000300Y-169000000D01*
X150500000Y-100500000D02*
X150500000Y-98499700D01*
X147320000Y-87630000D02*
X147320000Y-95319700D01*
X147320000Y-95319700D02*
X150500000Y-98499700D01*
X219000300Y-169000000D02*
X220551100Y-170550800D01*
X220551100Y-170550800D02*
X226615300Y-170550800D01*
X226615300Y-170550800D02*
X230197400Y-166968700D01*
X230197400Y-166968700D02*
X237718900Y-166968700D01*
X237718900Y-166968700D02*
X238976000Y-168225800D01*
X238976000Y-168225800D02*
X238976000Y-169316300D01*
X238976000Y-169316300D02*
X240189700Y-170530000D01*
X240189700Y-170530000D02*
X241838500Y-170530000D01*
X241838500Y-170530000D02*
X250267100Y-162101400D01*
X250267100Y-162101400D02*
X250267100Y-146766800D01*
X250267100Y-146766800D02*
X247500300Y-144000000D01*
X245500000Y-144000000D02*
X247500300Y-144000000D01*
X226500000Y-120750000D02*
X224499700Y-120750000D01*
X185436100Y-124329900D02*
X220919800Y-124329900D01*
X220919800Y-124329900D02*
X224499700Y-120750000D01*
X285500300Y-118207600D02*
X289997000Y-113710900D01*
X289997000Y-113710900D02*
X296644300Y-113710900D01*
X296644300Y-113710900D02*
X309540400Y-100814800D01*
X309540400Y-100814800D02*
X309540400Y-99167900D01*
X309540400Y-99167900D02*
X308312100Y-97939600D01*
X308312100Y-97939600D02*
X306685600Y-97939600D01*
X306685600Y-97939600D02*
X304500300Y-100124900D01*
X304500300Y-100124900D02*
X304500300Y-100500000D01*
X285500300Y-120750000D02*
X285500300Y-118207600D01*
X302500000Y-100500000D02*
X300499700Y-100500000D01*
X226500000Y-100500000D02*
X228500300Y-100500000D01*
X228500300Y-100500000D02*
X230536200Y-102535900D01*
X230536200Y-102535900D02*
X250854400Y-102535900D01*
X250854400Y-102535900D02*
X257221600Y-96168700D01*
X257221600Y-96168700D02*
X296168400Y-96168700D01*
X296168400Y-96168700D02*
X300499700Y-100500000D01*
X302500000Y-100500000D02*
X304500300Y-100500000D01*
X283500000Y-120750000D02*
X285500300Y-120750000D01*
X150500000Y-102500300D02*
X151589800Y-102500300D01*
X151589800Y-102500300D02*
X153885700Y-104796200D01*
X150500000Y-100500000D02*
X150500000Y-102500300D01*
X302500000Y-144000000D02*
X300499700Y-144000000D01*
%TO.N,/ROW2*%
X246480800Y-125466400D02*
X249002000Y-122945200D01*
X249002000Y-122945200D02*
X249002000Y-122251700D01*
X159579700Y-100500000D02*
X159579700Y-104750600D01*
X159579700Y-104750600D02*
X146216000Y-118114300D01*
X146216000Y-118114300D02*
X146216000Y-123424400D01*
X146216000Y-123424400D02*
X148799500Y-126007900D01*
X148799500Y-126007900D02*
X245939300Y-126007900D01*
X245939300Y-126007900D02*
X246480800Y-125466400D01*
X246480800Y-125466400D02*
X262499700Y-141485300D01*
X262499700Y-141485300D02*
X262499700Y-144000000D01*
X262499700Y-141485300D02*
X271525500Y-141485300D01*
X271525500Y-141485300D02*
X276040600Y-146000400D01*
X276040600Y-146000400D02*
X285212500Y-146000400D01*
X285212500Y-146000400D02*
X285621300Y-145591600D01*
X285621300Y-145591600D02*
X285621300Y-139629000D01*
X285621300Y-139629000D02*
X302500000Y-122750300D01*
X302500000Y-120750000D02*
X302500000Y-122750300D01*
X190500300Y-120750000D02*
X192500700Y-122750400D01*
X192500700Y-122750400D02*
X209220100Y-122750400D01*
X209220100Y-122750400D02*
X210352000Y-121618500D01*
X210352000Y-121618500D02*
X210352000Y-119523200D01*
X210352000Y-119523200D02*
X211889500Y-117985700D01*
X211889500Y-117985700D02*
X251065700Y-117985700D01*
X251065700Y-117985700D02*
X252531400Y-119451400D01*
X252531400Y-119451400D02*
X252531400Y-121063700D01*
X252531400Y-121063700D02*
X251343400Y-122251700D01*
X251343400Y-122251700D02*
X249002000Y-122251700D01*
X249002000Y-122251700D02*
X247500300Y-120750000D01*
X264500000Y-144000000D02*
X262499700Y-144000000D01*
X159579700Y-100500000D02*
X149860000Y-90780300D01*
X169500000Y-100500000D02*
X159579700Y-100500000D01*
X188500000Y-120750000D02*
X190500300Y-120750000D01*
X149860000Y-87630000D02*
X149860000Y-90780300D01*
X245500000Y-120750000D02*
X247500300Y-120750000D01*
X236000000Y-169000000D02*
X233999700Y-169000000D01*
X179000000Y-169000000D02*
X181000300Y-169000000D01*
X181000300Y-169000000D02*
X183371100Y-171370800D01*
X183371100Y-171370800D02*
X231628900Y-171370800D01*
X231628900Y-171370800D02*
X233999700Y-169000000D01*
X182792400Y-150169700D02*
X133921300Y-150169700D01*
X133921300Y-150169700D02*
X129499700Y-145748100D01*
X129499700Y-145748100D02*
X129499700Y-124750600D01*
X129499700Y-124750600D02*
X131500000Y-122750300D01*
X188500000Y-144000000D02*
X188500000Y-146000300D01*
X188500000Y-146000300D02*
X186961800Y-146000300D01*
X186961800Y-146000300D02*
X182792400Y-150169700D01*
X182792400Y-159654100D02*
X182792400Y-150169700D01*
X131500000Y-120750000D02*
X131500000Y-122750300D01*
%TO.N,/ROW3*%
X171676100Y-102031000D02*
X171676100Y-102076100D01*
X171676100Y-102076100D02*
X162716600Y-111035600D01*
X162716600Y-111035600D02*
X154355900Y-111035600D01*
X154355900Y-111035600D02*
X146966300Y-118425200D01*
X146966300Y-118425200D02*
X146966300Y-123113500D01*
X146966300Y-123113500D02*
X148998300Y-125145500D01*
X148998300Y-125145500D02*
X206171500Y-125145500D01*
X152400000Y-90780300D02*
X163510700Y-90780300D01*
X163510700Y-90780300D02*
X171676100Y-98945700D01*
X171676100Y-98945700D02*
X171676100Y-102031000D01*
X171676100Y-102031000D02*
X184968700Y-102031000D01*
X184968700Y-102031000D02*
X186499700Y-100500000D01*
X188500000Y-100500000D02*
X186499700Y-100500000D01*
X131500000Y-144000000D02*
X133500300Y-144000000D01*
X207500000Y-144000000D02*
X205499700Y-144000000D01*
X205499700Y-144000000D02*
X203972200Y-145527500D01*
X203972200Y-145527500D02*
X192694600Y-145527500D01*
X192694600Y-145527500D02*
X190734600Y-143567500D01*
X190734600Y-143567500D02*
X190734600Y-142489500D01*
X190734600Y-142489500D02*
X190244700Y-141999600D01*
X190244700Y-141999600D02*
X182966600Y-141999600D01*
X182966600Y-141999600D02*
X177390500Y-147575700D01*
X177390500Y-147575700D02*
X137076000Y-147575700D01*
X137076000Y-147575700D02*
X133500300Y-144000000D01*
X190500300Y-100500000D02*
X195537400Y-105537100D01*
X195537400Y-105537100D02*
X255364800Y-105537100D01*
X255364800Y-105537100D02*
X260401900Y-100500000D01*
X260401900Y-100500000D02*
X264500000Y-100500000D01*
X188500000Y-100500000D02*
X190500300Y-100500000D01*
X152400000Y-87630000D02*
X152400000Y-90780300D01*
%TD*%
M02*
